<svg xmlns="http://www.w3.org/2000/svg" id="dog-sitting-in-box" viewBox="0 0 2500 3500">
  <polygon points="680.096 1786.018 508.855 1866.356 634.351 1936.928 680.096 1786.018" style="fill:#ad5d1c"></polygon>
  <polygon points="2026.397 1853.418 1861.847 1789.145 1893.712 1924.677 2026.397 1853.418" style="fill:#ad5d1c"></polygon>
  <path d="M1861.84731,1789.14468c0,91.0326,37.8416,147.7688,19.3975,230.0358-3.5154,15.8418-55.19,62.4645-59.344,77.8954-24.2422,89.7087-58.7106,172.067-101.4414,244.1534-94.6391,159.6952-229.499,268.852-382.1631,295.2397-50.9498-142.6664-7.0408-232.7164-83.7285-232.7098-75.5418.0064-32.0943,86.9845-82.2215,228.3727-220.2769-49.9446-462.1331-310.9208-532.1199-606.7537-20.3611-86.102,30.2998-140.316,30.2998-236.2335,0-471.4154,266.6602-853.5786,595.6377-853.5786C1595.14091,935.56608,1861.84731,1317.72928,1861.84731,1789.14468Z" style="fill:#f99b28"></path>
  <ellipse cx="1283.257" cy="2067.024" rx="410.844" ry="434.129" style="fill:#fff"></ellipse>
  <path d="M2038.70451,2861.81328s-324.1381,214.5703-538.7083,310.4421-424.5752,0-424.5752,0-360.6606-141.5251-493.055-205.4396c-132.3944-63.9146-105.322-164.3517-105.322-164.3517v-201.1027c88.476,45.6078,192.1089,95.1871,363.9021,170.104,22.8266,9.9069,114.4524,39.81,184.7585,3.0133,53.3689-27.9398,102.4919-131.938,140.9772-240.6384,50.1272-141.3879,82.2216-290.7655,82.2216-290.7655s32.7787,152.4362,83.7284,295.1026c38.3026,107.1026,86.832,208.7265,139.4703,236.3013,70.3061,36.7967,161.9319,6.8936,184.7586-3.0133,222.2859-96.9675,330.5296-151.4774,439.3667-209.8678-.4564,54.9664-.2736,119.2005,1.8263,167.8213C2102.619,2834.42138,2038.70451,2861.81328,2038.70451,2861.81328Z" style="fill:#f98628"></path>
  <g style="opacity:.3">
    <path d="M2104.43431,2700.05638c-106.9653,57.2948-215.2552,111.5766-433.7058,206.8549-22.8267,9.9069-114.453,39.8097-184.7586,3.0132-52.6383-27.5747-101.1677-129.1986-139.4709-236.3012-50.9486-142.6664-83.7278-295.1026-83.7278-295.1026s-32.0944,149.3775-82.2216,290.7655c-38.4859,108.7003-87.6088,212.6986-140.9772,240.6383-70.3061,36.7965-161.9319,6.8937-184.7586-3.0132-171.7931-74.9169-275.4263-124.4962-363.9018-170.1041v128.4226c-14.9287-38.2117-6.6657-68.8449-6.6657-68.8449v-201.1027c88.476,45.6078,192.1086,95.1872,363.9024,170.104,22.8266,9.907,114.4524,39.8098,184.7585,3.0133,53.3684-27.9398,102.4913-131.938,140.9767-240.6384,50.1277-141.3879,82.2215-290.7655,82.2215-290.7655s32.7793,152.4363,83.7284,295.1026c38.3026,107.1027,86.8326,208.7265,139.4709,236.3013,70.3056,36.7965,161.9319,6.8937,184.7586-3.0133,222.2853-96.9674,330.529-151.4774,439.3667-209.8678C2103.06441,2602.08468,2103.11011,2655.31628,2104.43431,2700.05638Z" style="fill:#102770"></path>
  </g>
  <path d="M1436.09861,2684.34048a52.804,52.804,0,0,1-9.9218-.9472c-16.2647-3.0811-37.1338-15.9082-44.1871-59.502-36.6113-226.289-97.8613-320.4199-124.812-352.2998-22.8686,36.1231-77.7026,134.5947-147.1533,340.1514-18.6108,55.0781-51.1279,65.332-75.0928,64.1846-81.7797-3.8282-181.9751-149.0918-234.4238-235.3418-81.5942-134.1797-149.8193-291.67-178.0517-411.0035-14.2579-60.2905-1.8189-107.0629,11.3501-156.582,7.0556-26.5356,14.353-53.9746,18.6181-86.2475,72.9932-552.5464,296.6919-869.4483,613.7403-869.4483,165.4931,0,304.0649,82.2583,411.8701,244.4922,98.5058,148.2397,168.33,364.3652,201.9238,625.0146h.0024c3.3912,26.3257,8.0396,49.7339,12.5342,72.3682,10.9204,55.0073,20.354,102.5122,6.5698,163.9942-2.6928,12.1337-14.3286,25.625-34.6582,48.4228-9.0234,10.1196-22.6049,25.3491-24.9804,30.6323-24.4971,90.5103-59.2359,174.0503-103.2593,248.313-45.5664,76.8897-102.251,158.3887-151.6309,218.0078C1503.42041,2666.48408,1461.14261,2684.33568,1436.09861,2684.34048Zm-181.5185-459.5117a18.19578,18.19578,0,0,1,10.6201,3.4131c4.1479,2.9736,102.124,76.333,152.8442,389.8193,1.3355,8.2569,5.4639,27.6563,14.9317,29.4483,40.52,7.6123,167.5805-139.7754,271.7724-315.5908,42.4048-71.5332,75.8887-152.1485,99.524-239.607,2.998-11.1401,13.8867-23.7304,32.8759-45.0219,8.9746-10.0635,23.9136-26.8164,26.3819-32.5708,11.9409-53.7476,3.6401-95.5469-6.8579-148.4253-4.6143-23.2349-9.3848-47.2583-12.9346-74.8145h0c-68.6133-532.3388-279.1309-837.6513-577.5732-837.6513-296.7017,0-507.2046,305.332-577.5342,837.7099-4.5703,34.6021-12.5171,64.4849-19.5288,90.8472-12.9883,48.8476-23.2495,87.4292-11.1036,138.7915,60.42,255.3955,279.8194,613.6426,378.6426,618.2666,6.2085.3125,25.0806,1.1719,38.7842-39.3897,94.5386-279.8144,162.1338-364.9804,164.9634-368.4716A18.24536,18.24536,0,0,1,1254.58011,2224.82878Zm584.956-123.0078c-.0097.0342-.0171.0635-.0268.0977C1839.519,2101.88448,1839.52641,2101.85278,1839.53611,2101.821Zm23.9112-86.7309c-.0098.0463-.0196.0903-.0293.1342C1863.42771,2015.18038,1863.43751,2015.134,1863.44731,2015.09008Z" style="fill:#102770"></path>
  <g style="opacity:.3">
    <path d="M949.77031,1969.49518c-101.2491-101.048-209.6968-225.8561-236.3843-272.3969l-30.2066-208.9836c4.9095,9.5549,10.2934,18.9567,16.0336,28.2059v.0381s.0793.153.1981.4206c3.2862,7.0322,47.8233,101.1283,120.7848,211.5059.0396.0383.0792.1148.1585.1911,93.0331,140.8768,232.4242,308.2395,391.2535,354.5614v.0382a300.01105,300.01105,0,0,0,84.2044,12.4213,224.02483,224.02483,0,0,0,56.7307-7.7586c230.8015-60.4629,501.7057-457.7153,501.785-571.3417v-.0382c2.5733-4.3951,5.107-8.7522,7.5219-13.1855l-16.9837,210.0153c-55.8481,92.3545-180.3702,205.4372-246.9667,262.5167a154.11275,154.11275,0,0,1-99.6145,36.9573l-438.5309,2.005A154.616,154.616,0,0,1,949.77031,1969.49518Z" style="fill:#102770"></path>
  </g>
  <path d="M1847.92131,1049.08178c2.2962-6.6884,214.8604-662.8818-8.4984-749.1047-177.3963-68.5274-338.9308,224.5818-384.4973,318.5632h-.0396a565.67657,565.67657,0,0,0-192.5982-33.633c-71.2197,0-120.7847,7.6821-182.8991,35.8115-44.5768-96.3512-249.768-418.6098-395.4144-306.3594-190.1041,146.4567-18.5632,647.2764,16.9082,734.7224-35.6693,80.7576-39.8657,123.6779-57.2451,218.8443a342.54118,342.54118,0,0,0-3.4046,101.587c5.3444-59.4696,29.8497-129.6782,105.0284-179.9368,154.3953-103.1923,255.3461,9.5549,348.3792-38.2194,93.0331-47.7742,98.9714-244.6041,98.9714-244.6041s-1.3062-101.2813,79.5335-101.2813h1.2669c80.6022.1525,79.2957,101.2813,79.2957,101.2813s5.9383,196.8299,98.9714,244.6041c93.0331,47.7743,193.984-64.9729,348.3793,38.2194,73.991,49.4562,98.8924,118.2511,104.7514,177.1086a315.488,315.488,0,0,0,.3958-56.7175C1896.77371,1209.83228,1876.93981,1129.34248,1847.92131,1049.08178ZM764.65961,889.09548c-30.3247-106.0971-102.3679-405.6595-5.178-443.5348,94.8543-36.9581,179.5259,149.3983,212.7804,234.5129C892.57031,729.30018,821.42971,799.31818,764.65961,889.09548Zm1005.9057-9.2875c-56.7701-89.7773-127.9106-159.7953-207.6024-209.0216,33.2543-85.1147,118.5496-257.0532,213.4036-220.0949C1873.55661,488.56678,1800.89011,773.71138,1770.56531,879.808Z" style="fill:#f99b28"></path>
  <path d="M1904.80341,1366.69158c-4.7505,49.6852-20.9821,98.4532-46.1996,144.6603-2.4153,4.4336-4.9485,8.8287-7.5224,13.224-102.8906,174.4716-333.9685,309.0037-559.5044,309.0037-220.667,0-481.3972-124.4041-595.4124-308.6596-.1189-.2676-.1977-.4206-.1977-.4206-5.7406-9.249-11.1241-18.6511-16.033-28.2059-20.7052-39.9391-34.5216-82.439-39.7075-126.7737,5.3439-59.4693,29.8495-129.6783,105.0286-179.9369,154.3954-103.1924,255.3462,9.5548,348.3793-38.2194,93.0331-47.7743,98.9714-244.6041,98.9714-244.6041s-1.3068-101.2814,79.5327-101.2814h1.2672c80.6022.153,79.2959,101.2814,79.2959,101.2814s5.9383,196.8298,98.9714,244.6041c93.0331,47.7742,193.984-64.973,348.3793,38.2194C1874.043,1239.03878,1898.94431,1307.83368,1904.80341,1366.69158Z" style="fill:#fff"></path>
  <g style="opacity:.3">
    <path d="M1552.14821,1267.13018c.6341,32.4864-56.8612,121.3324-138.124,79.8403-70.5861-36.0406-34.5608-106.2118-34.5608-106.2118h-206.5732s60.9729,90.0044-24.1424,118.669c-85.1154,28.6645-134.9643-88.4756-134.9643-88.4756-34.1645,123.5631,59.898,165.7575,59.898,165.7575,42.3595,145.7305,118.8314,213.8885,209.2844,213.8885,143.8453,0,207.187-220.3859,207.187-220.3859C1589.12431,1406.97478,1552.14821,1267.13018,1552.14821,1267.13018Zm-177.4352,249.2285a95.74092,95.74092,0,0,1-3.8801,27.0976c-11.56,39.4807-47.7039,68.4508-90.1427,68.4508-42.954,0-79.4545-29.6963-90.5395-69.9031a94.73222,94.73222,0,0,1-3.4833-25.6453V1411.714a135.57635,135.57635,0,0,0,55.7004-32.3335,129.57651,129.57651,0,0,0,39.9848-91.7648c.7123,57.4056,39.1923,105.944,92.3604,123.0282Z" style="fill:#102770"></path>
  </g>
  <path d="M1190.15741,1541.99718c-56.0573-46.3984-82.8192-130.7484-82.8192-130.7484a138.39333,138.39333,0,0,0,79.3353.4586v104.6447A94.7321,94.7321,0,0,0,1190.15741,1541.99718Z" style="fill:#102770"></path>
  <path d="M1374.71921,1410.63718v105.7149a95.74462,95.74462,0,0,1-3.8796,27.0975c-11.5598,39.4809-47.7042,68.451-90.1432,68.451-42.9535,0-79.4541-29.6965-90.539-69.9034a94.7321,94.7321,0,0,1-3.4839-25.6451v-104.6447a135.58357,135.58357,0,0,0,55.7012-32.3334,129.58057,129.58057,0,0,0,39.9846-91.7648C1283.07181,1345.01478,1321.55181,1393.55318,1374.71921,1410.63718Z" style="fill:#ed2e7a"></path>
  <path d="M1457.18221,1411.24878s-26.2869,84.4265-86.3426,132.2008a95.74462,95.74462,0,0,0,3.8796-27.0975v-105.7149a138.03125,138.03125,0,0,0,82.463.6116Z" style="fill:#102770"></path>
  <path d="M1770.56531,879.808c-56.7701-89.7773-127.9106-159.7953-207.6024-209.0216,33.2543-85.1147,118.5496-257.0532,213.4036-220.0949C1873.55661,488.56678,1800.89011,773.71138,1770.56531,879.808Z" style="fill:#ed2e7a"></path>
  <path d="M1773.60351,900.94938l-10.4175-16.477c-54.9072-86.8311-123.8159-156.2256-204.812-206.2573l-6.1914-3.8257,2.6489-6.7798c24.8658-63.645,114.5826-267.9663,224.7046-225.0537,97.9297,38.1616,41.6748,291.8359-.5737,439.6509Zm-199.8388-233.7036c75.498,47.8906,140.5322,112.273,193.6157,191.648,63.0639-227.8369,65.4126-376.8433,5.8154-400.0684C1680.061,422.54608,1595.65921,612.96118,1573.76471,667.24578Z" style="fill:#102770"></path>
  <path d="M972.262,673.37558c-79.6917,49.2266-150.8323,119.2445-207.6024,209.0218-30.3247-106.097-100.2696-398.9614-3.0797-436.8367C856.43421,408.60258,939.00761,588.26088,972.262,673.37558Z" style="fill:#ed2e7a"></path>
  <path d="M761.62351,903.53978l-5.3588-18.7427c-26.9385-94.2529-106.4014-405.0708,2.1435-447.3706,98.9551-38.5352,181.5527,129.2895,221.9873,232.771l2.6489,6.7822-6.1938,3.8257c-80.9937,50.0293-149.9024,119.4263-204.8096,206.2573Zm25.6055-454.1602a61.45829,61.45829,0,0,0-22.4805,4.3164c-72.8076,28.3765-44.7754,233.1909,3.1153,407.7612,53.081-79.3652,118.1176-143.7451,193.6108-191.6284C931.88481,595.60758,863.82811,449.37958,787.229,449.37958Z" style="fill:#102770"></path>
  <rect width="17.461" height="17.197" x="1177.944" y="1394.509" style="fill:#102770"></rect>
  <rect width="17.461" height="16.128" x="1365.989" y="1394.509" style="fill:#102770"></rect>
  <polygon points="1842.358 1524.57 1842.358 1524.492 1859.819 1524.492 1842.358 1524.57" style="fill:#102770"></polygon>
  <path d="M1851.07271,1524.58408c-.0908,113.6767-270.9513,510.8599-501.7744,571.3047a225.0728,225.0728,0,0,1-56.7467,7.7611,301.09314,301.09314,0,0,1-84.1848-12.4178c-158.7821-46.3836-298.1611-213.6571-391.2487-354.5887l-.1822-.1825c-72.9086-110.3895-117.4662-204.5264-120.7531-211.5572,113.996,184.2564,374.7221,308.6615,595.4097,308.6615C1517.11971,1833.56518,1748.21641,1699.02518,1851.07271,1524.58408Z" style="fill:#ec1c24"></path>
  <path d="M1292.55131,2112.38008a311.2374,311.2374,0,0,1-86.6187-12.7612c-163.0835-47.6416-305.0512-220.4712-395.5957-357.4024l-.686-.9424c-74.1699-112.2998-119.4849-208.623-121.377-212.6684l15.3321-8.2959c107.4096,173.6059,360.1879,304.5239,587.9858,304.5239,215.73,0,447.8613-128.1396,551.958-304.6826l16.2793-27.6074-.0269,32.0483c-.0463,59.5313-69.9731,190.3467-166.267,311.0523-114.7974,143.8989-239.4629,241.8335-342.024,268.6914A234.27074,234.27074,0,0,1,1292.55131,2112.38008Zm-468.8282-381.4868.6812.9375c88.9111,134.6118,228.1226,304.7803,386.4111,351.0205a293.77137,293.77137,0,0,0,81.7359,12.0679,216.88328,216.88328,0,0,0,54.541-7.4781c207.4634-54.3286,440.0757-377.5903,486.8164-520.6054-116.062,161.7236-336.5039,275.4589-542.3169,275.4589-197.6538,0-413.8281-96.477-542.3828-234.3652C768.61081,1642.80248,793.76951,1685.49288,823.72311,1730.89328Z" style="fill:#102770"></path>
  <path d="M1324.46091 2028.64178c-4.4484-.27-8.9496-.2019-13.3327-.8903a28.92907 28.92907 0 0 0-17.9396 2.6032c-8.3953 4.1593-17.2454 5.7231-26.4664 3.4002-15.1467-3.8159-21.9101-17.8347-15.2953-32.0034a44.06172 44.06172 0 0 1 6.6285-9.8671 74.75766 74.75766 0 0 0 12.3383-19.4922c4.1011-9.5923 11.4482-15.2966 21.7782-16.6166 10.4207-1.3316 19.0978 2.3706 25.3201 10.8166a45.72177 45.72177 0 0 0 16.122 14.1129 30.35917 30.35917 0 0 1 13.1342 12.9247c5.2841 9.9172 2.9677 20.8422-5.8495 27.8066a33.42633 33.42633 0 0 1-16.4054 6.6619ZM1280.112 1910.22418c1.0612 5.9126 1.5397 11.8455-.4577 17.5941a30.0379 30.0379 0 0 1-4.4105 8.563c-6.4793 8.3062-17.4435 8.6709-25.1361.8254-6.927-7.0648-9.8791-15.6602-8.0508-25.5102a41.241 41.241 0 0 1 12.5567-22.889 23.92581 23.92581 0 0 1 5.8125-3.9835c4.2393-2.0807 8.16-1.1154 11.2528 2.4699 3.1768 3.6828 4.7496 8.1655 6.0344 12.7369C1278.65691 1903.388 1279.32251 1906.82348 1280.112 1910.22418ZM1289.92021 1908.89808c.0774-5.906-.0504-11.8253.328-17.7116a21.64649 21.64649 0 0 1 2.1748-7.4668c1.726-3.7217 4.9299-5.2988 9.0237-4.9155 4.9619.4647 9.1052 2.8467 12.9601 5.7796 6.7324 5.1223 12.2709 11.2967 14.6551 19.5686 2.4675 8.5609 1.4192 16.889-3.7868 24.2865-6.5355 9.2869-18.0823 9.8555-26.2744 1.4906a29.26063 29.26063 0 0 1-7.6775-14.9183c-.4173-2.0113-.5992-4.0714-.8886-6.1092ZM1367.73011 1940.26648c1.5179 10.8136-1.412 19.5661-9.5663 26.1483-8.9887 7.2558-20.3391 3.8492-24.238-7.0544a24.72658 24.72658 0 0 1-1.0956-13.2625 53.73241 53.73241 0 0 1 8.6644-21.0968 21.50447 21.50447 0 0 1 4.5148-4.6543c3.4653-2.6046 7.2066-2.5093 10.7193.0399 4.9615 3.6004 7.6068 8.7883 9.5286 14.409C1366.92041 1936.73508 1367.33131 1938.76088 1367.73011 1940.26648ZM1252.51851 1966.06058c-.3054 2.9507-.2696 5.9871-.9806 8.836-2.0766 8.3206-9.9358 12.6888-18.2091 10.3952-10.1171-2.8048-17.6905-12.1209-18.762-23.0575a36.378 36.378 0 0 1 2.0106-17.098 23.23456 23.23456 0 0 1 2.5573-4.7486c2.7986-4.0156 6.7459-5.163 11.297-3.3521a14.98589 14.98589 0 0 1 3.6002 1.9453 50.78034 50.78034 0 0 1 16.9888 22.4958 40.30177 40.30177 0 0 1 1.1578 4.5192Z" style="fill:#fff"></path>
  <polygon points="1849.88 1511.345 1849.88 1511.269 1867.341 1511.269 1849.88 1511.345" style="fill:#102770"></polygon>
  <g style="opacity:.6">
    <path d="M1907.97,757.16888c29.4933-187.1605,29.0182-372.257-74.9017-412.3874-177.3961-68.5273-346.8346,219.8605-392.4011,313.8419h0c-61.7977-22.32-116.5812-30.0969-182.4962-30.0969-71.2198,0-120.7848,7.6821-182.899,35.8115-44.5767-96.3511-240.5325-418.4942-386.1785-306.2439-36.4217,28.0912-58.4724,73.6486-70.0324,129.5636,9.1452-71.279,32.186-129.7549,75.6542-163.2731,145.6459-112.2504,341.6012,209.893,386.178,306.2439,62.1142-28.1294,111.6792-35.8116,182.8989-35.8116a565.67936,565.67936,0,0,1,192.5989,33.6331h.0397c45.5664-93.9814,204.8627-385.9053,382.2592-317.378C1948.86481,353.61018,1942.768,559.07768,1907.97,757.16888Z" style="fill:#fff"></path>
  </g>
  <g style="opacity:.6">
    <path d="M1831.136,639.30438c-17.4978,112.5561-43.6994,241.2792-58.5847,293.4103-56.7699-89.7773-158.1027-189.3773-237.795-238.6039,3.2466-8.2935,7.2451-18.3835,11.9162-29.7728,77.1581,48.9973,170.1318,137.9719,225.3977,225.3799C1785.49031,842.78438,1813.00471,741.23538,1831.136,639.30438Z" style="fill:#fff"></path>
  </g>
  <g style="opacity:.6">
    <path d="M1000.24451,703.68488c-79.6918,49.2266-182.9316,139.2523-239.7015,229.0298-25.0995-87.8666-99.7634-367.1355-69.4385-482.0232-11.9954,128.6084,52.1379,368.1292,75.0598,448.3137,53.128-84.0064,150.9443-170.7452,224.4605-219.2839C994.34591,688.741,997.55281,696.84348,1000.24451,703.68488Z" style="fill:#fff"></path>
  </g>
  <g style="opacity:.6">
    <path d="M1820.12381,1584.16078s-44.5476,101.9773-308.3694,298.0547C1511.75441,1882.21548,1797.89131,1761.94558,1820.12381,1584.16078Z" style="fill:#fff"></path>
  </g>
  <g style="opacity:.6">
    <path d="M734.62091,1591.89848s107.0055,248.2204,344.6533,305.3567C1079.27421,1897.25518,870.96661,1748.47808,734.62091,1591.89848Z" style="fill:#fff"></path>
  </g>
  <g style="opacity:.3">
    <path d="M1905.22761,1351.68408c-4.7509,49.6852-20.9821,98.4532-46.2,144.6606-2.4149,4.4333-4.9486,8.8286-7.5214,13.2237-102.8907,174.4716-333.9695,309.0039-559.5054,309.0039-220.6666,0-481.3967-124.404-595.412-308.6598-.1184-.2676-.1976-.4204-.1976-.4204-5.7407-9.2492-11.1246-18.651-16.0336-28.2059-20.7047-39.9393-34.5211-82.4392-39.7074-126.7739a339.2535,339.2535,0,0,1-2.296-40.2449c30.0872,233.4824,312.7436,426.4536,644.3374,426.4536,331.3957,0,593.5178-192.7419,623.9215-425.9567A310.50618,310.50618,0,0,1,1905.22761,1351.68408Z" style="fill:#102770"></path>
  </g>
  <g style="opacity:.3">
    <path d="M1792.202,412.45578c-132.8991-43.9523-214.3212,147.9212-256.76,251.878,112.0358,60.1193,177.0399,126.9649,258.1964,279.1546C1831.16881,813.92458,1971.26091,471.69578,1792.202,412.45578Zm-21.6431,467.3589c-56.7703-89.7773-127.9108-159.7952-207.6026-209.0218,33.2545-85.1144,113.2772-216.3085,208.1318-179.3504C1868.27771,529.31808,1800.88341,773.71768,1770.55891,879.81468Z" style="fill:#102770"></path>
  </g>
  <g style="opacity:.3">
    <path d="M872.41291,757.16888a614.62739,614.62739,0,0,1,99.8422-77.0887c-33.254-85.1145-117.9195-271.4778-212.7735-234.5195-97.1901,37.8753-25.1531,337.4443,5.1714,443.5413a699.546,699.546,0,0,1,72.6454-95.9305c-31.7105,37.8372-60.65,88.7835-92.7171,166.9422-38.2422-130.0224-144.0474-523.7257-2.7957-570.1241,137.8476-45.2899,205.371,185.4459,248.8392,289.7467C943.15811,706.37508,905.50941,728.00738,872.41291,757.16888Z" style="fill:#102770"></path>
  </g>
  <g style="opacity:.3">
    <path d="M1849.97311,1516.29948c-.0396,25.8746-12.7873,40.1898-37.1735,88.1168-446.5591,470.2133-863.3473,215.0777-1057.9251,24.9362l-.0396-.0382c-36.2633-62.9475-57.5615-107.8933-59.7787-112.6707,114.0153,184.2555,374.745,308.6596,595.412,308.6596C1516.00411,1825.30318,1747.08251,1690.77108,1849.97311,1516.29948Z" style="fill:#102770"></path>
  </g>
  <g style="opacity:.2">
    <path d="M1585.23151,1952.52138c-74.387,72.0817-155.8601,129.7548-232.8601,149.8965a224.02158,224.02158,0,0,1-56.7303,7.7585,299.79552,299.79552,0,0,1-84.2049-12.4213c-86.9759-25.3778-168.1325-87.0637-238.9961-160.8273C1112.66291,2023.11268,1331.82511,2094.77408,1585.23151,1952.52138Z" style="fill:#102770"></path>
  </g>
  <g style="opacity:.2">
    <path d="M1705.91051,1785.00288s-274.8438,172.9718-482.9804,191.097c0,0,184.0868,23.8986,399.552-71.3299Z" style="fill:#102770"></path>
  </g>
  <g style="opacity:.2">
    <path d="M870.91531,1785.00288s236.4229,193.766,499.9243,114.6582c0,0-317.1623,111.823-416.4959,5.1089Z" style="fill:#102770"></path>
  </g>
  <path d="M832.80031 1721.76968a4.87469 4.87469 0 0 0-.8984-1.6577l1.7163 1.3379 3.4741 2.732 7.1704 5.6787 14.4287 11.5356 28.9063 23.2617c19.3603 15.4444 38.5546 31.1914 58.2519 46.3648 19.6265 15.2881 39.7217 29.9731 60.1416 44.3701 20.3345 14.5898 41.4209 28.0054 62.6392 41.897l.0586.0366a2.62879 2.62879 0 0 1-2.229 4.707 571.18455 571.18455 0 0 1-71.3379-27.7954 764.79129 764.79129 0 0 1-67.7539-35.9668c-21.9507-13.1299-43.5767-26.9092-64.0332-42.2949-10.2442-7.6758-20.3247-15.5762-30.0391-23.9722-4.9097-4.126-9.6655-8.4619-14.4067-12.8515-2.3755-2.1534-4.6827-4.5264-7.0215-6.7774-1.1597-1.0986-2.3487-2.3828-3.523-3.6108l-1.7602-1.8531a44.07084 44.07084 0 0 1-4.2456-4.9902 18.26182 18.26182 0 1 1 30.4614-20.1514ZM1775.44921 1734.27708a44.08986 44.08986 0 0 1-4.2431 4.9902l-1.7627 1.853c-1.1744 1.2281-2.3609 2.5122-3.5205 3.6109-2.3414 2.2509-4.6485 4.624-7.0215 6.7773-4.7412 4.3897-9.4971 8.7256-14.4092 12.8516-9.7119 8.3984-19.7925 16.2964-30.0366 23.9721-20.459 15.3858-42.085 29.1651-64.0332 42.295a764.84919 764.84919 0 0 1-67.7564 35.9668 571.30106 571.30106 0 0 1-71.3354 27.7954 2.6282 2.6282 0 0 1-2.2315-4.7046l.0586-.0391c21.2207-13.8916 42.3071-27.3071 62.6392-41.897 20.4199-14.3969 40.5151-29.082 60.1416-44.3701 19.6972-15.1733 38.894-30.9204 58.2544-46.3647l28.9038-23.2617 14.4287-11.5357 7.1704-5.6787 3.4766-2.7319 1.7163-1.3379a4.82885 4.82885 0 0 0-.9009 1.6577 18.26182 18.26182 0 1 1 30.4614 20.1514ZM1080.00491 634.37468a18.26516 18.26516 0 0 1-7.544-34.9023c68.8501-31.1792 123.9185-37.4439 190.4541-37.4439a583.49759 583.49759 0 0 1 198.3716 34.563 18.26184 18.26184 0 0 1-5.7348 35.5933h-3.2349l-3.0078-1.0864A547.05092 547.05092 0 0 0 1262.915 598.552c-73.7475 0-119.6435 8.9477-175.3857 34.1919A18.21556 18.21556 0 0 1 1080.00491 634.37468ZM1292.20951 1847.21648c-111.9165 0-234.7754-30.9692-345.9424-87.1997-115.0879-58.2153-209.1992-139.9365-264.9976-230.1123l-.791-1.3769c-5.9595-9.6582-11.3916-19.2432-16.1548-28.5108-22.3095-43.0371-36.3159-87.8052-41.6015-133.0005a361.915 361.915 0 0 1 3.5791-106.9848c2.3852-13.0616 4.519-25.1319 6.521-36.4527 12.666-71.6015 20.31-114.8193 51.9653-186.4868a18.26092 18.26092 0 1 1 33.4082 14.7559c-29.8682 67.6245-36.8091 106.8628-49.4092 178.0932-2.0117 11.3819-4.1601 23.5181-6.5576 36.648a325.534 325.534 0 0 0-3.2324 96.1889c4.7705 40.7886 17.4829 81.3282 37.7832 120.4883 4.5044 8.7647 9.6557 17.8247 15.3369 26.98l.6787 1.1939c106.0962 170.6567 354.9878 299.2529 579.4141 299.2529 212.5659 0 441.2573-126.1768 543.7768-300.0195 2.4488-4.1797 4.8877-8.4107 7.2119-12.6783 24.8584-45.5493 39.6802-91.8603 44.0601-137.666a298.13891 298.13891 0 0 0 .376-53.4595c-7.6367-90.6811-24.9878-169.6948-56.2598-256.1914a18.26067 18.26067 0 0 1 34.3457-12.417c32.4097 89.6363 50.3906 171.5357 58.3081 265.5542a334.82333 334.82333 0 0 1-.415 60.0123c-4.8511 50.7275-21.1182 101.7578-48.3472 151.6479-2.4975 4.585-5.1221 9.1431-7.7905 13.7036C1758.78661 1713.48118 1516.86521 1847.21648 1292.20951 1847.21648Z" style="fill:#102770"></path>
  <path d="M1848.54741 1062.73648a18.27553 18.27553 0 0 1-17.2779-24.1772c.7227-2.1606 54.4702-167.5684 79.4312-340.2832 21.9311-151.7529 26.228-341.084-77.854-381.2622-170.8154-65.979-330.5689 242.3901-360.8643 304.8755l-4.9902 10.2954h-11.4404a18.27426 18.27426 0 0 1-16.0157-27.0874c19.6411-40.4004 72.2193-140.8862 144.9707-221.3355 89.7486-99.2529 177.7173-133.1884 261.4966-100.8178 101.7481 39.2773 135.6226 181.1694 100.6738 421.7309-25.7104 176.9776-80.3295 344.1821-80.8593 345.7276A18.27182 18.27182 0 0 1 1848.54741 1062.73648ZM701.499 1062.73648a18.26518 18.26518 0 0 1-16.9287-11.4013c-16.3598-40.3321-68.0395-191.2647-90.1684-350.3491-28.3521-203.8453.9594-340.8594 87.1215-407.2388 32.6319-25.1538 69.5996-32.9028 109.9024-23.02 139.4433 34.187 276.1621 275.0756 305.1416 337.7124a18.26047 18.26047 0 0 1-33.1445 15.3369c-40.669-87.9004-167.8101-289.9024-280.6934-317.5781-29.3799-7.1998-55.188-1.8091-78.9136 16.477-172.4927 132.8906-29.9316 605.1538 14.5972 714.9292a18.27347 18.27347 0 0 1-16.9141 25.1318Z" style="fill:#102770"></path>
  <path d="m758.894 928.72288-11.2036-39.1968c-11.7065-40.9644-40.0415-147.1533-50.2636-248.2398-12.4561-123.2128 6.3574-192.8002 57.5219-212.7392 106.5186-41.5015 192.8907 132.7417 234.9121 240.2905l5.5396 14.1797-12.9517 8.0029c-79.7558 49.2652-147.6391 117.649-201.7651 203.2471Zm27.9859-469.7095a51.02052 51.02052 0 0 0-18.6694 3.562c-60.1685 23.4497-41.0352 205.7691 4.1137 378.5791 49.9439-70.3735 109.6265-128.396 177.9444-172.9639C923.68651 603.16378 856.81891 459.01338 786.87991 459.01338ZM1148.38381 1430.93228c-84.2871 0-152.8613-67.1215-152.8613-149.624a18.2617 18.2617 0 0 1 36.5234 0c0 62.3633 52.1875 113.1006 116.3379 113.1006 63.3374 0 115.5273-50.0903 116.3428-111.6602l36.5185.0098c.7813 61.543 52.9541 111.6113 116.3013 111.6113 64.1504 0 116.3403-50.7348 116.3403-113.0981a18.26175 18.26175 0 0 1 36.5235 0c0 82.5024-68.5743 149.6216-152.8638 149.6216a153.85781 153.85781 0 0 1-134.5703-78.9234A153.9045 153.9045 0 0 1 1148.38381 1430.93228Z" style="fill:#102770"></path>
  <path d="M1371.47461 1557.08958a18.26185 18.26185 0 0 1-11.3818-32.5537c54.7851-43.5816 80.039-122.5611 80.2881-123.3545a18.26177 18.26177 0 0 1 34.8657 10.8789c-1.1426 3.667-28.6963 90.3686-92.4146 141.0595A18.20072 18.20072 0 0 1 1371.47461 1557.08958ZM1190.76171 1555.64178a18.183 18.183 0 0 1-11.6333-4.1943c-59.5117-49.2554-87.4414-135.6372-88.6011-139.292a18.261 18.261 0 0 1 34.8096-11.0523c.4541 1.4087 26.1548 80.0611 77.0777 122.2095a18.26159 18.26159 0 0 1-11.6529 32.3291Z" style="fill:#102770"></path>
  <path d="M1281.32321 1625.54418c-61.914 0-112.2851-51.0547-112.2851-113.8111v-104.6435a18.2617 18.2617 0 0 1 36.5234 0v104.6435c0 42.6172 33.9868 77.2876 75.7617 77.2876s75.7618-34.6704 75.7618-77.2876v-105.6762a18.2617 18.2617 0 1 1 36.5234 0v105.6762C1393.60841 1574.48948 1343.23731 1625.54418 1281.32321 1625.54418ZM1222.92971 1678.84488a9.07965 9.07965 0 0 1 2.1411.1856l1.2036.2881 1.6968.5102 2.6855.8814 4.7437 1.748 8.8281 3.4107c5.7373 2.207 11.3086 4.1723 16.7945 5.8642a122.96761 122.96761 0 0 0 32.4194 5.835 106.73037 106.73037 0 0 0 32.81-4.5288c11.1377-3.2105 22.3658-7.9419 34.2579-13.1397l.0634-.0293a4.83754 4.83754 0 0 1 5.8545 7.273 95.33865 95.33865 0 0 1-31.1084 27.2436 88.35029 88.35029 0 0 1-42.1093 11.0767 85.34947 85.34947 0 0 1-42.273-10.8838 90.12427 90.12427 0 0 1-17.0923-12.4268c-2.5464-2.351-4.8828-4.8974-7.1387-7.3779l-3.1323-3.8061-1.3305-1.7798a2.032 2.032 0 0 1-.398-.6714c.0635-.0464-.2978-.3223.1123-.21a1.84736 1.84736 0 0 0 .9717-.1074 4.67775 4.67775 0 0 1 0-9.3555ZM1414.63591 1160.11588c0 53.0443-54.1355 125.0154-131.6502 125.0154-90.2423 0-144.1812-67.1936-144.1812-120.238s43.7059-64.973 133.9481-64.973C1362.99491 1099.92028 1414.63591 1107.07148 1414.63591 1160.11588Z" style="fill:#102770"></path>
  <ellipse cx="1277.364" cy="1147.695" rx="59.383" ry="20.065" style="fill:#fff"></ellipse>
  <path d="M1564.38141,1024.437c0,49.0736-27.712,88.8601-61.8769,88.8601-34.1253,0-61.8373-39.7865-61.8373-88.8601,0-49.0738,27.712-88.8601,61.8373-88.8601C1536.66941,935.57688,1564.38141,975.36318,1564.38141,1024.437Z" style="fill:#102770"></path>
  <ellipse cx="1518.64" cy="1015.678" rx="16.116" ry="38.697" style="fill:#fff"></ellipse>
  <path d="M1103.33331 1024.437c0 49.0736-27.712 88.8601-61.8774 88.8601-34.1645 0-61.8369-39.7865-61.8369-88.8601 0-49.0738 27.6724-88.8601 61.8369-88.8601C1075.62131 935.57688 1103.33331 975.36318 1103.33331 1024.437ZM1293.20071 2117.29948c-141.9312 0-288.5498-99.8925-435.7837-296.9043-108.0884-144.6313-176.7114-291.3476-177.3926-292.8125a18.2613 18.2613 0 0 1 33.1226-15.3881c2.644 5.686 267.9004 568.5815 580.0537 568.5815 98.4228 0 227.998-86.3696 355.5029-236.9629 114.1113-134.7729 184.7412-273.0762 184.7412-323.9233a18.26175 18.26175 0 1 1 36.5235 0c0 67.9052-83.1397 217.3071-193.3911 347.5219C1597.561 1960.737 1442.68311 2117.29948 1293.20071 2117.29948Z" style="fill:#102770"></path>
  <ellipse cx="1057.578" cy="1015.678" rx="16.116" ry="38.697" style="fill:#fff"></ellipse>
  <path d="m1776.92141 924.02318-21.7896-34.4556c-54.1284-85.5981-122.0117-153.9795-201.7651-203.2446l-12.9517-8.003 5.5396-14.1796c25.6787-65.7276 118.6645-276.6089 237.0434-230.4639 99.7095 38.8574 57.8223 266.7847 5.127 451.1499Zm-191.3648-260.5225c68.3521 44.5898 128.0518 102.6416 178.0127 173.064 55.5811-208.5474 58.335-348.5279 6.167-368.8599C1703.479 441.904 1630.55661 554.07438 1585.55661 663.50068ZM1296.99951 1314.26728c1.4746 16.0327 1.4844 32.063 1.1865 48.0957-.2734 16.0327-1.4355 32.0654-2.5708 48.0957q-1.74315 24.049-4.292 48.0957c-1.7749 16.0327-3.6816 32.0654-6.3525 48.0957a2.03163 2.03163 0 0 1-4.0088 0c-2.6709-16.0303-4.5776-32.063-6.355-48.0957q-2.5122-24.04545-4.292-48.0957c-1.1352-16.0303-2.2949-32.063-2.5708-48.0957-.2954-16.0327-.2856-32.063 1.189-48.0957a14.0925 14.0925 0 0 1 28.0664 0ZM1299.59961 3233.43228c-123.6914 0-216.3306-40.1709-225.6177-44.3505-14.4799-5.6836-364.4726-143.3399-493.8916-205.8204-131.4233-63.4472-119.1211-164.2089-115.6274-182.622v-169.8877a18.2617 18.2617 0 0 1 36.5234 0v174.1308l-.6299 2.3389c-.8618 3.4033-20.5664 87.0606 95.6128 143.1494 130.2564 62.8858 488.1885 203.4717 491.7872 204.8877l.913.3858c2.0142.9082 205.3858 91.1669 409.5435-.0635 210.7153-94.1504 532.8491-306.8604 536.0767-308.999l1.3745-.9082 1.5136-.6495c1.9458-.8935 52.2046-24.9316 48.2959-114.8144-4.5727-105.1758-.1025-148.0225.0904-149.7949a18.26116 18.26116 0 1 1 36.3086 3.9453c-.0415.3906-4.3335 42.5195.0903 144.2676 4.6728 107.5097-56.8457 143.291-68.584 149.1162-20.7934 13.7011-332.9419 218.5449-540.2685 311.1865C1438.42291 3222.29948 1364.70951 3233.43228 1299.59961 3233.43228ZM490.05371 1879.86058a18.26458 18.26458 0 0 1-7.2925-35.0122l166.2867-72.3194a18.26069 18.26069 0 1 1 14.5654 33.4912l-166.2866 72.3194A18.18012 18.18012 0 0 1 490.05371 1879.86058ZM2019.78761 1882.573a18.18839 18.18839 0 0 1-7.7515-1.7383l-140.2026-65.8618a18.2609 18.2609 0 0 1 15.5273-33.0567l140.2027 65.8618a18.26481 18.26481 0 0 1-7.7759 34.795Z" style="fill:#102770"></path>
  <path d="M2217.85121,2498.74808c-164.3516,89.0239-257.3016,142.7575-555.3261,272.7325-22.8266,9.9066-114.4524,39.8095-184.7585,3.013-52.6383-27.5745-101.1677-129.1987-139.4703-236.301-50.9498-142.6664-83.7285-295.1026-83.7285-295.1026l342.445-172.2499,209.4571-105.3675,26.9813-13.5591,183.5258-92.3108s193.9349,307.4745,243.8335,399.7855C2343.39771,2412.007,2268.98261,2471.03658,2217.85121,2498.74808Z" style="fill:#f98628"></path>
  <g style="opacity:.3">
    <path d="M2296.84571,2402.69358c-8.8571,51.9077-47.6166,79.5278-78.067,96.0543-164.3516,89.0238-257.3021,142.7578-555.3261,272.7324-22.8266,9.907-114.4524,39.8098-184.7591,3.0133-52.6377-27.5748-101.1672-129.1986-139.4703-236.3013-50.9492-142.6663-83.7279-295.1026-83.7279-295.1026l37.8467-19.0373c13.1476,54.6011,39.581,157.2755,74.5967,255.2928,38.3037,107.1027,86.8326,208.7268,139.4709,236.3013,70.3061,36.7965,161.9319,6.8937,184.7585-3.013,298.0245-129.9749,390.975-183.7089,555.3267-272.7327C2263.51911,2431.22678,2281.82561,2419.44818,2296.84571,2402.69358Z" style="fill:#102770"></path>
  </g>
  <g style="opacity:.6">
    <path d="M2286.4,2408.31688c-4.7025-25.7485-15.3389-55.5602-34.1029-90.2108-49.8987-92.311-243.8335-399.7855-243.8335-399.7855l-175.0142,83.0952-26.9818,13.5592-209.4566,105.3677-330.2559,166.132c-7.8979-32.2769-12.1891-52.2273-12.1891-52.2273l342.445-172.2496,209.4566-105.3678,26.9818-13.5589,183.5258-92.311s193.9349,307.4748,243.8335,399.7855C2295.87011,2315.32758,2294.11621,2372.47888,2286.4,2408.31688Z" style="fill:#fff"></path>
  </g>
  <path d="M1558.29831,2810.46358c-29.9975,0-61.228-5.2588-88.999-19.79-49.768-26.0743-98.2397-106.6456-148.1982-246.3331-50.7691-142.1582-84.0552-295.874-84.3872-297.4121a18.26026,18.26026,0,0,1,9.6484-20.1513l762.4097-383.4888a18.26729,18.26729,0,0,1,23.6523,6.5723c7.9297,12.5756,194.8291,309.0454,244.4507,400.8471,65.7495,121.4991,48.8208,210.3565-50.3223,264.0967h-.0048c-14.9292,8.0908-29.2676,15.8838-43.2276,23.4717-140.3955,76.3184-241.831,131.4648-513.4961,249.9414C1646.43311,2798.37368,1603.78661,2810.46358,1558.29831,2810.46358Zm-282.7929-557.4609c9.27,40.5029,38.8037,163.7304,79.9878,279.0478,57.3877,160.4639,102.7758,211.6113,130.747,226.2647,59.7876,31.2988,142.2779,8.0224,169.0137-3.5889,270.1831-117.832,371.0376-172.6563,510.625-248.5352,13.9722-7.5976,28.3301-15.4004,43.2739-23.4961,50.3638-27.3046,108.8452-79.2578,35.5982-214.6142-42.9785-79.5069-195.9058-323.4888-234.3897-384.7095Zm942.3462,245.747h0Z" style="fill:#102770"></path>
  <path d="M1609.23581,2733.94988a9.35436,9.35436,0,0,1-.8715-18.667,251.23235,251.23235,0,0,0,51.6186-10.6445,9.35406,9.35406,0,1,1,5.6885,17.8223,269.61044,269.61044,0,0,1-55.5396,11.4453C1609.83151,2733.93528,1609.53131,2733.94988,1609.23581,2733.94988Zm-54.5166-2.3388a9.63537,9.63537,0,0,1-1.892-.1905,139.54053,139.54053,0,0,1-36.6773-12.8613,94.7277,94.7277,0,0,1-16.8359-11.4893,9.355,9.355,0,0,1,12.0459-14.3164,76.25231,76.25231,0,0,0,13.4716,9.2334,120.61513,120.61513,0,0,0,31.7603,11.1035,9.356,9.356,0,0,1-1.8726,18.5206Zm158.6744-29.7217a9.354,9.354,0,0,1-3.7745-17.9151q26.2647-11.5722,49.9805-22.2021a9.3578,9.3578,0,0,1,7.6514,17.0801q-23.81475,10.664-50.0928,22.2412A9.28331,9.28331,0,0,1,1713.39361,2701.88938ZM1470.249,2667.446a9.34706,9.34706,0,0,1-7.8442-4.2431,470.68834,470.68834,0,0,1-27.3438-48.7452,9.355,9.355,0,1,1,16.7823-8.2715,452.46642,452.46642,0,0,0,26.2304,46.792,9.35319,9.35319,0,0,1-7.8247,14.4678Zm343.0567-10.3613a9.35554,9.35554,0,0,1-3.899-17.8613c17.5049-8.0127,33.9698-15.6543,49.5679-22.9932a9.35642,9.35642,0,0,1,7.9639,16.9336c-15.6519,7.3584-32.1753,15.0293-49.7437,23.0713A9.34493,9.34493,0,0,1,1813.30571,2657.08468Zm99.0405-46.6309a9.35539,9.35539,0,0,1-4.0967-17.7685c16.8384-8.1836,32.8394-16.1035,48.9209-24.2188a9.357,9.357,0,0,1,8.4277,16.709c-16.1645,8.1543-32.2485,16.1133-49.1699,24.3359A9.31628,9.31628,0,0,1,1912.34621,2610.45378Zm-491.2817-40.7861a9.35906,9.35906,0,0,1-8.6573-5.8008c-6.5674-16.001-13.2104-33.3496-19.7485-51.5723a9.35567,9.35567,0,0,1,17.6123-6.3183c6.4404,17.959,12.9834,35.0439,19.4458,50.7812a9.36085,9.36085,0,0,1-8.6523,12.9102Zm589.0039-8.4961a9.35645,9.35645,0,0,1-4.3433-17.6465c16.3623-8.5547,32.2803-17.0215,48.2471-25.6006a9.35551,9.35551,0,1,1,8.8525,16.4844c-16.0254,8.6084-32.0019,17.1045-48.4277,25.6982A9.32613,9.32613,0,0,1,2010.06841,2561.17158Zm96.4599-51.6895a9.35618,9.35618,0,0,1-4.4726-17.5781l13.2544-7.2021c11.2695-6.1231,22.8344-12.4121,34.8462-18.9209,1.6284-.8838,3.3032-1.8115,4.9975-2.7832a9.35347,9.35347,0,1,1,9.3018,16.2304q-2.7246,1.56015-5.3711,2.9981c-12.0191,6.5088-23.5767,12.793-34.8389,18.916l-13.2593,7.207A9.35676,9.35676,0,0,1,2106.52831,2509.48208Zm-723.1689-42.7441a9.35318,9.35318,0,0,1-8.8477-6.3184c-5.9375-17.2949-11.8457-34.7998-17.5879-52.0263a9.35486,9.35486,0,1,1,17.7491-5.918c5.7275,17.1777,11.6162,34.624,17.5341,51.8701a9.35714,9.35714,0,0,1-8.8476,12.3926Zm818.3789-20.9912a9.35365,9.35365,0,0,1-7.3633-15.1172,90.00574,90.00574,0,0,0,18.6011-45.3662,9.356,9.356,0,0,1,18.5791,2.2266,108.47561,108.47561,0,0,1-22.439,54.663A9.3463,9.3463,0,0,1,2201.73831,2445.74678Zm-853.1079-83.0371a9.35268,9.35268,0,0,1-8.8916-6.4551c-6.0962-18.6963-11.7871-36.3574-16.8677-52.2412a9.35628,9.35628,0,0,1,17.8223-5.7031c5.0708,15.8545,10.7495,33.4863,16.8335,52.1435a9.35024,9.35024,0,0,1-8.8965,12.2559Zm868.8476-21.211a9.35217,9.35217,0,0,1-9.0405-6.9726c-4.0332-15.3076-10.4443-31.8701-19.0576-49.2334a9.35487,9.35487,0,0,1,16.7627-8.3106c9.1748,18.4913,16.0327,36.25,20.3857,52.7784a9.35112,9.35112,0,0,1-9.0503,11.7382Zm-902.268-83.2861a9.35634,9.35634,0,0,1-8.9234-6.5576c-3.7866-12.0703-6.2427-19.9902-6.9848-22.3877l-.2149-.6934c-.0708-.2246-.1367-.4541-.1904-.6884a9.35679,9.35679,0,0,1,4.8974-10.5176l27.3707-13.7647a9.357,9.357,0,0,1,8.4082,16.7188l-20.2881,10.2002c1.2011,3.8623,2.8369,9.1064,4.8535,15.5371a9.35625,9.35625,0,0,1-8.9282,12.1533Zm855.8105-15.6494a9.34665,9.34665,0,0,1-8.0664-4.6045c-7.8125-13.2373-17.3096-29.0381-28.23-46.958a9.35478,9.35478,0,0,1,15.9766-9.7363c10.9668,17.9931,20.5127,33.872,28.3667,47.1924a9.355,9.355,0,0,1-8.0469,14.1064Zm-786.7041-45.8643a9.3566,9.3566,0,0,1-4.2114-17.7148l48.9404-24.6191a9.357,9.357,0,0,1,8.4082,16.7187l-48.9404,24.6192A9.30426,9.30426,0,0,1,1384.31641,2196.69888Zm729.6582-47.9882a9.34438,9.34438,0,0,1-7.9639-4.4336c-9.4458-15.2539-19.1894-30.9156-28.9721-46.5772a9.35519,9.35519,0,0,1,15.8691-9.9121c9.7974,15.6812,19.5532,31.3648,29.0112,46.6455a9.35469,9.35469,0,0,1-7.9443,14.2774Zm-631.7749-1.2452a9.3566,9.3566,0,0,1-4.2114-17.7148l48.9404-24.6167a9.35591,9.35591,0,0,1,8.4082,16.7163l-48.9404,24.6192A9.30426,9.30426,0,0,1,1482.19971,2147.46548Zm97.8809-49.2358a9.35695,9.35695,0,0,1-4.2115-17.7148l48.9429-24.6167a9.3548,9.3548,0,1,1,8.4082,16.7138l-48.9429,24.6167A9.31781,9.31781,0,0,1,1580.08061,2098.22968Zm475.7397-42.6416a9.34329,9.34329,0,0,1-7.9272-4.375c-10.1148-16.0742-19.9756-31.7017-29.2823-46.416a9.35588,9.35588,0,0,1,15.8155-10c9.3115,14.7241,19.1821,30.3662,29.3017,46.4551a9.35628,9.35628,0,0,1-7.9077,14.3359Zm-377.8564-6.5942a9.357,9.357,0,0,1-4.2115-17.7149l48.9405-24.6191a9.3548,9.3548,0,0,1,8.4082,16.7138l-48.9405,24.6192A9.31015,9.31015,0,0,1,1677.96391,2048.99388Zm97.8808-49.2408a9.35695,9.35695,0,0,1-4.2114-17.7148l48.9453-24.6094a9.35484,9.35484,0,1,1,8.4082,16.7139l-48.9453,24.6094A9.31778,9.31778,0,0,1,1775.84471,1999.75308Zm221.2744-36.9897a9.34936,9.34936,0,0,1-7.9052-4.3359c-13.0054-20.4615-23.357-36.6944-29.5288-46.3599a9.35359,9.35359,0,0,1,15.7666-10.0684c6.1767,9.6704,16.538,25.9131,29.5532,46.3892a9.35687,9.35687,0,0,1-7.8858,14.375Zm-123.3886-12.2339a9.35695,9.35695,0,0,1-4.2115-17.7148l48.9429-24.6167a9.3548,9.3548,0,1,1,8.4082,16.7138l-48.9429,24.6167A9.31015,9.31015,0,0,1,1873.73051,1950.52948Z" style="fill:#102770"></path>
  <path d="M282.15021,2501.35238c164.3516,89.0239,257.3016,142.7575,555.3261,272.7325,22.8266,9.9066,114.4524,39.8095,184.7585,3.013,52.6383-27.5745,101.1677-129.1987,139.4703-236.301,50.9498-142.6664,83.7285-295.1026,83.7285-295.1026l-342.445-172.2499-209.4571-105.3675-26.9813-13.5591-183.5258-92.3107s-193.9349,307.4744-243.8335,399.7854C156.60371,2414.61128,231.01881,2473.64088,282.15021,2501.35238Z" style="fill:#f98628"></path>
  <g style="opacity:.3">
    <path d="M203.15571,2405.29788c8.8571,51.9077,47.6166,79.5278,78.067,96.0543,164.3516,89.0238,257.3021,142.7578,555.3261,272.7324,22.8266,9.907,114.4524,39.8098,184.7591,3.0133,52.6377-27.5748,101.1672-129.1986,139.4703-236.3012,50.9492-142.6664,83.7279-295.1027,83.7279-295.1027l-37.8467-19.0373c-13.1476,54.6011-39.581,157.2755-74.5967,255.2929-38.3037,107.1026-86.8326,208.7267-139.4709,236.3012-70.3061,36.7965-161.9319,6.8937-184.7585-3.013-298.0245-129.9749-390.975-183.7089-555.3267-272.7327C236.48231,2433.83108,218.17581,2422.05248,203.15571,2405.29788Z" style="fill:#102770"></path>
  </g>
  <g style="opacity:.6">
    <path d="M213.60141,2410.92118c4.7025-25.7485,15.3389-55.5602,34.1029-90.2108,49.8987-92.311,243.8335-399.7855,243.8335-399.7855l175.0142,83.0952,26.9818,13.5592,209.4566,105.3677,330.2559,166.132c7.8979-32.2769,12.1891-52.2273,12.1891-52.2273l-342.445-172.2496-209.4566-105.3678-26.9818-13.5589-183.5258-92.311s-193.9349,307.4748-243.8335,399.7855C204.13131,2317.93188,205.88521,2375.08328,213.60141,2410.92118Z" style="fill:#fff"></path>
  </g>
  <path d="M941.69681,2813.06608c-45.4859,0-88.1153-12.08-111.4917-22.2265-271.6675-118.4815-373.0982-173.6231-513.4839-249.9366-13.9722-7.5976-28.3252-15.4003-43.269-23.496h-.0025c-99.1479-53.7305-116.0767-142.5879-50.3174-264.1065,49.6143-91.7871,236.5161-388.2593,244.4458-400.835a18.25549,18.25549,0,0,1,23.6524-6.5722l762.4096,383.4863a18.26058,18.26058,0,0,1,9.6485,20.1514c-.3321,1.5381-33.6206,155.2539-84.3872,297.4072-49.9536,139.6875-98.4253,220.2637-148.1934,246.3379C1002.937,2807.81218,971.69431,2813.06608,941.69681,2813.06608Zm-650.8496-327.7685c14.9609,8.1006,29.331,15.9131,43.3154,23.5156,139.5801,75.8789,240.4272,130.6982,510.6128,248.5352,26.7163,11.5918,109.209,34.8584,168.9893,3.5693,27.9687-14.6484,73.3618-65.8057,130.7446-226.2695,41.1816-115.3125,70.7178-238.5401,79.9878-279.043l-734.856-369.6289c-38.4839,61.2207-191.416,305.2051-234.3847,384.6973-73.2618,135.3857-14.773,187.3291,35.5957,214.624Z" style="fill:#102770"></path>
  <path d="M1186.29151 2255.53678a9.3507 9.3507 0 0 1-8.9258-12.1631c2.4536-7.8027 4.419-14.082 5.8057-18.5253l-17.3828-8.7403a9.35589 9.35589 0 0 1 8.4033-16.7187l24.4702 12.3047a9.35734 9.35734 0 0 1 4.7339 11.1279s-3.0054 9.7119-8.1836 26.167A9.35487 9.35487 0 0 1 1186.29151 2255.53678ZM1115.09281 2189.49188a9.3117 9.3117 0 0 1-4.1968-.9961l-54.8901-27.6074a9.357 9.357 0 0 1 8.4082-16.7188l54.8901 27.6075a9.35661 9.35661 0 0 1-4.2114 17.7148Zm-109.7779-55.2197a9.3116 9.3116 0 0 1-4.1967-.9961l-54.8902-27.6123a9.35484 9.35484 0 0 1 8.4082-16.7139l54.8902 27.6099a9.35529 9.35529 0 0 1-4.2115 17.7124ZM895.51031 2079.10618a9.30452 9.30452 0 0 1-4.1431-.9741l-55.0659-27.2535a9.35484 9.35484 0 1 1 8.3008-16.7675l55.0659 27.2534a9.357 9.357 0 0 1-4.1577 17.7417Zm-110.1343-54.5069a9.30483 9.30483 0 0 1-4.1431-.9741l-55.0659-27.2534a9.35489 9.35489 0 0 1 8.3008-16.7676l55.0659 27.2534a9.357 9.357 0 0 1-4.1577 17.7417Zm-110.2661-54.2285a9.29787 9.29787 0 0 1-4.0015-.9057l-55.5176-26.3282a9.35464 9.35464 0 0 1 8.0176-16.9043l55.5176 26.3282a9.35684 9.35684 0 0 1-4.0161 17.81ZM523.64261 1928.42008a9.35548 9.35548 0 0 1-7.666-14.707c9.8877-14.1772 15.6982-22.4634 15.6982-22.4634a9.345 9.345 0 0 1 11.6675-3.0786l24.751 11.7383a9.35464 9.35464 0 0 1-8.0176 16.9043l-17.6123-8.3521c-2.666 3.8135-6.4404 9.2163-11.1402 15.9546A9.34446 9.34446 0 0 1 523.64261 1928.42008ZM400.93511 2106.80388a9.35543 9.35543 0 0 1-7.7417-14.5971c10.1709-15.0342 20.4126-30.0831 30.4687-44.8047a9.35436 9.35436 0 1 1 15.4492 10.5517c-10.0415 14.7022-20.2636 29.7266-30.4199 44.7364A9.345 9.345 0 0 1 400.93511 2106.80388Zm61.0595-89.4043a9.35568 9.35568 0 0 1-7.6977-14.6606c10.9985-15.979 21.3916-31.0181 30.7812-44.5703a9.3553 9.3553 0 1 1 15.3809 10.6543c-9.3799 13.5376-19.7632 28.562-30.752 44.5263A9.34527 9.34527 0 0 1 461.99461 2017.39958ZM902.80031 2737.12368c-.1245 0-.249-.0048-.3735-.0097a259.76121 259.76121 0 0 1-55.4322-8.5791 9.35542 9.35542 0 0 1 4.795-18.086 241.068 241.068 0 0 0 51.3696 7.9737 9.35411 9.35411 0 0 1-.3589 18.7011Zm53.5547-5.9326a9.355 9.355 0 0 1-2.6172-18.3349 116.29242 116.29242 0 0 0 21.272-8.5059c6.7553-3.54 13.7817-8.9502 20.8813-16.0791a9.355 9.355 0 1 1 13.2569 13.2031c-8.4449 8.4815-17.0093 15.0244-25.459 19.4483a134.877 134.877 0 0 1-24.7071 9.8926A9.42329 9.42329 0 0 1 956.355 2731.19108Zm-157.5244-21.5039a9.29741 9.29741 0 0 1-3.7329-.7812l-49.5972-21.5967a9.357 9.357 0 0 1 7.4707-17.1582l49.602 21.6064a9.35447 9.35447 0 0 1-3.7426 17.9297Zm-99.1992-43.2129a9.30938 9.30938 0 0 1-3.7354-.7812q-25.9863-11.33055-49.5801-21.6602a9.35488 9.35488 0 1 1 7.5049-17.1386q23.63895 10.35645 49.5557 21.6503a9.35514 9.35514 0 0 1-3.7451 17.9297Zm335.4272-5.3564a9.357 9.357 0 0 1-7.9736-14.2334 511.087 511.087 0 0 0 25.0146-46.875 9.35464 9.35464 0 1 1 16.9043 8.0176 530.17361 530.17361 0 0 1-25.9521 48.6133A9.35049 9.35049 0 0 1 1035.05861 2661.11788Zm-434.5044-38.0811a9.27805 9.27805 0 0 1-3.7793-.8007c-17.2925-7.6514-33.7085-14.9659-49.4482-22.0557a9.35589 9.35589 0 0 1 7.6855-17.0606c15.7007 7.0704 32.0825 14.375 49.3311 22.0069a9.355 9.355 0 0 1-3.7891 17.9101Zm-98.5864-44.4824a9.30923 9.30923 0 0 1-3.9282-.8691c-17.3536-8.0371-33.3912-15.6055-49.0284-23.1348a9.35369 9.35369 0 1 1 8.1153-16.8555c15.5542 7.4854 31.5088 15.0147 48.7793 23.0176a9.35449 9.35449 0 0 1-3.938 17.8418Zm580.1489-14.8389a9.35035 9.35035 0 0 1-8.6816-12.832c5.4956-13.7207 11.0571-28.4375 16.5283-43.7353l2.3511-6.6114a9.355 9.355 0 1 1 17.6318 6.2598l-2.3633 6.6455c-5.5517 15.5225-11.1963 30.459-16.7798 44.3994A9.35823 9.35823 0 0 1 1082.11671 2563.71548Zm-677.5684-32.124a9.32882 9.32882 0 0 1-4.2016-1.001c-16.2036-8.164-31.9727-16.2939-48.2153-24.8535a9.35583 9.35583 0 0 1 8.7255-16.5527c16.1377 8.5059 31.8091 16.5869 47.9078 24.6973a9.35525 9.35525 0 0 1-4.2164 17.7099Zm-95.4272-50.8886a9.33345 9.33345 0 0 1-5.0781-1.504c-18.1519-11.7627-31.687-24.9169-41.3819-40.2197a9.35433 9.35433 0 0 1 15.8057-10.0097c8.2178 12.9687 19.9121 24.2626 35.752 34.5263a9.35565 9.35565 0 0 1-5.0977 17.2071Zm809.79-18.8184a9.35533 9.35533 0 0 1-8.8525-12.3779c5.8105-17.0069 11.6064-34.2432 17.2607-51.25a9.35558 9.35558 0 0 1 17.7539 5.9082c-5.6689 17.0459-11.4843 34.331-17.3095 51.3867A9.35953 9.35953 0 0 1 1118.91111 2461.88448Zm-863.7646-69.7363a9.35393 9.35393 0 0 1-9.3433-9.0088c-.061-1.6358-.0927-3.2813-.0927-4.9561 0-15.9179 2.8466-33.2178 8.4619-51.4209a9.35637 9.35637 0 0 1 17.8808 5.5176c-5.0659 16.416-7.6318 31.8604-7.6318 45.9033q0 2.1606.0781 4.2627a9.356 9.356 0 0 1-9.0015 9.6973C255.37841 2392.14818 255.26121 2392.14818 255.14651 2392.14818Zm897.9785-33.0127a9.35089 9.35089 0 0 1-8.8965-12.251c5.9741-18.3496 11.582-35.7471 16.6211-51.4941a9.35628 9.35628 0 0 1 17.8223 5.7031c-5.0489 15.7763-10.6665 33.2031-16.6553 51.582A9.35729 9.35729 0 0 1 1153.125 2359.13548Zm-869.0015-70.0537a9.35668 9.35668 0 0 1-8.2837-13.6914q1.29285-2.4684 2.6514-4.9805c5.4859-10.1367 13.9624-24.3653 25.1929-42.2852a9.35677 9.35677 0 0 1 15.8545 9.9414c-11.0205 17.5782-19.2969 31.46-24.5947 41.2549q-1.29645 2.3877-2.522 4.7412A9.35329 9.35329 0 0 1 284.12351 2289.08178Zm56.7334-92.1875a9.3524 9.3524 0 0 1-7.8198-14.4727c9.4043-14.3896 19.4776-29.6045 29.9121-45.2393a9.35584 9.35584 0 0 1 15.5615 10.3907c-10.4003 15.5761-20.4394 30.7422-29.8144 45.083A9.33721 9.33721 0 0 1 340.85691 2196.89428Z" style="fill:#102770"></path>
  <ellipse cx="1715.666" cy="2085.034" rx="118.698" ry="168.917" style="fill:#f99b28"></ellipse>
  <g style="opacity:.6">
    <path d="M1834.364,2083.93538c0,65.147-25.9313,121.7115-63.9145,149.8794,26.9355-25.3375,44.6947-68.8449,44.6947-118.2417,0-78.204-44.5119-141.5707-99.4786-141.5707-54.9205,0-99.4781,63.3667-99.4781,141.5707,0,49.5337,17.8958,93.1324,44.9678,118.4245-38.1198-28.0768-64.1882-84.7324-64.1882-150.0622,0-93.3152,53.1405-168.917,118.6985-168.917S1834.364,1990.62018,1834.364,2083.93538Z" style="fill:#fff"></path>
  </g>
  <g style="opacity:.3">
    <path d="M1834.364,2085.60468c0,93.2696-53.1404,168.917-118.6984,168.917s-118.6984-75.6474-118.6984-168.917c0-75.3735,34.6512-139.1967,82.5414-160.9276-34.24,20.1329-58.345,68.1602-58.345,124.2223,0,74.2779,42.3206,134.4945,94.502,134.4945,52.1813,0,94.502-60.2166,94.502-134.4945,0-56.0621-24.1051-104.0894-58.345-124.2223C1799.71281,1946.408,1834.364,2010.23118,1834.364,2085.60468Z" style="fill:#102770"></path>
  </g>
  <path d="M1715.66651,2272.21158c-75.52,0-136.9604-83.9697-136.9604-187.1777,0-103.2104,61.4404-187.1777,136.9604-187.1777,75.5176,0,136.958,83.9673,136.958,187.1777C1852.62451,2188.24188,1791.18411,2272.21158,1715.66651,2272.21158Zm0-337.832c-55.3809,0-100.437,67.583-100.437,150.6543s45.0561,150.6543,100.437,150.6543,100.4346-67.583,100.4346-150.6543S1771.04741,1934.37958,1715.66651,1934.37958Z" style="fill:#102770"></path>
  <ellipse cx="830.569" cy="2085.034" rx="118.698" ry="168.917" style="fill:#f99b28"></ellipse>
  <g style="opacity:.6">
    <path d="M949.26731,2083.93538c0,65.147-25.9312,121.7115-63.9145,149.8794,26.9355-25.3375,44.6947-68.8449,44.6947-118.2417,0-78.204-44.5119-141.5707-99.4786-141.5707-54.9204,0-99.478,63.3667-99.478,141.5707,0,49.5337,17.8957,93.1324,44.9678,118.4245-38.1198-28.0768-64.1882-84.7324-64.1882-150.0622,0-93.3152,53.1404-168.917,118.6984-168.917S949.26731,1990.62018,949.26731,2083.93538Z" style="fill:#fff"></path>
  </g>
  <g style="opacity:.3">
    <path d="M949.26741,2085.60468c0,93.2696-53.1405,168.917-118.6985,168.917s-118.6984-75.6474-118.6984-168.917c0-75.3735,34.6512-139.1967,82.5414-160.9276-34.2399,20.1329-58.345,68.1602-58.345,124.2223,0,74.2779,42.3207,134.4945,94.502,134.4945,52.1814,0,94.502-60.2166,94.502-134.4945,0-56.0621-24.105-104.0894-58.345-124.2223C914.61611,1946.408,949.26741,2010.23118,949.26741,2085.60468Z" style="fill:#102770"></path>
  </g>
  <path d="M830.56891 2272.21158c-75.5201 0-136.9605-83.9697-136.9605-187.1777 0-103.2104 61.4404-187.1777 136.9605-187.1777 75.52 0 136.9604 83.9673 136.9604 187.1777C967.52931 2188.24188 906.08891 2272.21158 830.56891 2272.21158Zm0-337.832c-55.3809 0-100.4371 67.583-100.4371 150.6543s45.0562 150.6543 100.4371 150.6543c55.3808 0 100.437-67.583 100.437-150.6543S885.94971 1934.37958 830.56891 1934.37958ZM1256.17921 3148.36888c-4.3579-50.7276-6.3135-101.4527-7.8003-152.1778-1.1621-50.7275-1.7969-101.4526-1.3892-152.1777.1099-25.3638.2173-50.7275.7203-76.0889l.6128-38.0444.9863-38.0444c1.4526-50.7251 3.3349-101.4527 6.8701-152.1778a4.68919 4.68919 0 0 1 9.3555 0c3.5351 50.7251 5.4175 101.4527 6.8701 152.1778l.9863 38.0444.6104 38.0444c.5029 25.3614.6103 50.7251.7202 76.0889.4101 50.7251-.2246 101.4502-1.3867 152.1777-1.4869 50.7251-3.4449 101.4502-7.8003 152.1778a4.69506 4.69506 0 0 1-9.3555 0Z" style="fill:#102770"></path>
  <circle cx="460.854" cy="2347.512" r="30.027" style="fill:#fff" transform="rotate(-61.647 460.854 2347.512)"></circle>
  <circle cx="442.064" cy="2385.01" r="26.214" style="fill:#fff" transform="rotate(-37.374 442.068 2385.013)"></circle>
  <circle cx="621.8" cy="2428.165" r="30.027" style="fill:#fff" transform="rotate(-3.009 621.8 2428.167)"></circle>
  <circle cx="599.811" cy="2466.725" r="25.381" style="fill:#fff" transform="rotate(-31.08 599.811 2466.725)"></circle>
  <rect width="38.606" height="164.432" x="504.912" y="2322.37" style="fill:#fff" transform="rotate(-63.384 524.215 2404.586)"></rect>
</svg>
