<svg xmlns="http://www.w3.org/2000/svg" id="dog-running" viewBox="0 0 3000 2000">
  <path d="M2578.28853,1112.88343c-30.3232-102.0601,30.0592-115.0871,79.395-110.5982-133.2637-67.5559-171.5528-148.9311-238.9327-253.0599-.8803-1.3202-1.7603-2.6845-2.6406-4.0489,28.3428,119.4444,54.3969,296.5863-25.6581,315.6429-135.6401,32.2594-198.7071-96.8229-341.0367-33.7562-125.7378,55.7174-237.3041,199.8955-189.1129,416.6906.3081.1322.6162.3081.9243.4403q16.04175,7.5258,32.6997,14.1712c124.5057,49.9517,228.1942,63.9473,312.8262,58.4019q15.77775-1.05645,30.6751-2.9489a.26494.26494,0,0,0,.1762-.044c142.9017-22.9733,251.2994-106.065,278.7178-136.7842,80.2312-13.5553,194.482-89.2971,248.1307-169.7482C2702.662,1219.52083,2609.62393,1218.24443,2578.28853,1112.88343Zm-205.4406,245.2703c1.1884,8.4499-.264,15.7117-5.0613,20.9927-44.0104,48.4115-252.2674,69.0965-277.2656-19.5844-20.5528-72.8374,69.9767-21.7411,129.9188-94.3583v-.0441a149.23981,149.23981,0,0,1-9.6383-13.6434c-30.8072-83.6198,70.4167-140.8333,70.4167-140.8333s50.876,193.9099,152.5841,252.1359A273.52193,273.52193,0,0,1,2372.84793,1358.15373Z" style="fill:#fff"></path>
  <path d="M2433.80233,1362.81883a273.52193,273.52193,0,0,1-60.9544-4.6651c-3.4767-24.9101-29.8389-59.8984-60.8664-83.1798-32.3916-24.3817-69.8886-35.9565-91.5417-9.8143a149.23981,149.23981,0,0,1-9.6383-13.6434c-30.8072-83.6198,70.4167-140.8333,70.4167-140.8333S2332.09423,1304.59283,2433.80233,1362.81883Z" style="fill:#102770"></path>
  <path d="M2416.11033,745.176c-20.509-31.467-43.8345-65.091-73.2775-101.0037a425.8577,425.8577,0,0,0-135.6842-109.1019c-104.8325-53.9569-205.2643-54.045-219.1718-53.7806-48.0593-52.6363-108.7058-104.8326-172.2128-147.919v-.044c-125.3416-85.0279-261.9498-134.7599-335.5353-83.0477-102.1921,71.8694,4.1369,285.0115,70.2407,396.6219-46.9153,51.9325-72.2651,120.0165-77.8104,195.142-15.6237,211.9543,126.574,480.3303,387.6435,601.7103-48.1911-216.7948,63.3752-360.973,189.1129-416.6903,142.3296-63.0668,205.3966,66.0156,341.0367,33.7562C2470.50713,1041.76283,2444.453,864.62093,2416.11033,745.176Z" style="fill:#f99b28"></path>
  <path d="M2764.45253,1207.24183c-61.7905,12.279-154.8286,11.0026-186.164-94.3584-30.3232-102.0601,30.0592-115.0871,79.395-110.5982,16.7239,8.4943,34.9002,16.7242,54.8368,24.7779C2811.93993,1067.20063,2810.04733,1138.93783,2764.45253,1207.24183Z" style="fill:#102770"></path>
  <path d="M2207.14863,535.07083c-104.8326-53.9569-205.2644-54.045-219.1718-53.7809-48.0593-52.6363-108.7058-104.8326-172.2128-147.919v-.044c-1.144-3.6967-52.4163-174.9414,56.1573-208.4773C2021.55683,78.63863,2207.14863,535.07083,2207.14863,535.07083Z" style="fill:#f99b28"></path>
  <path d="M1987.49273 1747.38183c-20.0246 54.8809-110.466 35.5602-202.6679-1.5849-3.5648-1.408-7.0856-2.8602-10.6066-4.3569-14.6113-6.0289-29.179-12.4983-43.4824-19.1439-26.9781-38.9056-30.411-78.7353-4.665-117.7719 31.5556-47.8839 70.3288-60.4263 104.8328-58.6222a136.78714 136.78714 0 0 1 23.2817 3.2567l.044.0441C1935.47243 1612.88573 2008.61773 1689.46393 1987.49273 1747.38183ZM2427.905 1674.01623c-8.8021 38.0692-89.2532 43.9664-167.6358 40.3578-15.8877-22.8412-24.7779-54.4409-15.7117-97.791 7.7458-37.1451 44.7147-55.1012 82.5195-63.683C2381.606 1587.53573 2437.19113 1633.74663 2427.905 1674.01623ZM534.00473 1395.25443c-.2641 66.28-17.472 197.8266-91.6738 272.5562-.2641-.2197-.484-.44-.7481-.7038 0 0-132.0313 77.3702-220.0521 0-88.0208-77.3706 211.25-348.1225 311.0216-254.2482A144.891 144.891 0 0 1 534.00473 1395.25443Z" style="fill:#fff"></path>
  <path d="M1774.21823,1741.44q-7.7898,6.53535-15.9318,12.7636c-233.5633,178.3298-674.5037,157.4248-952.2093-2.2005,31.2035-12.8077,59.7222-29.1354,84.896-46.2109,131.2391-21.6534,481.2541-68.3924,782.8135-11.4432,17.912,9.2426,37.1446,18.7485,56.9492,27.9471C1745.03923,1728.94173,1759.60693,1735.41113,1774.21823,1741.44Z" style="fill:#fff"></path>
  <path d="M1854.18533 1549.15873a136.78714 136.78714 0 0 0-23.2817-3.2567c-34.504-1.8041-73.2772 10.7383-104.8328 58.6222-25.746 39.0366-22.3131 78.8663 4.665 117.7719-19.8046-9.1986-39.0372-18.7045-56.9492-27.9471-301.5594-56.9492-651.5744-10.2102-782.8135 11.4432-25.1738 17.0755-53.6925 33.4032-84.896 46.2109-102.4123 42.1618-233.0793 46.4747-363.7462-84.1925 74.2018-74.7296 91.4097-206.2762 91.6738-272.5562 2.5967-19.3206 9.9023-50.9641 30.4551-77.0623v-.044c8.7143-44.3626 19.7169-83.7079 32.7438-118.6082 26.9784-72.4409 62.4948-125.6496 103.2926-164.3788h.044c167.3274-158.9215 423.6003-74.1136 546.4332-74.1136 167.2396 0 187.7046-30.8514 187.7046-30.8514-18.9245 101.224 11.3985 287.6523 320.2636 548.5459.044 0 .0881.0441.1321.0881C1785.441 1498.54673 1820.47323 1522.75253 1854.18533 1549.15873ZM2244.55753 1616.583c-9.0662 43.3501-.176 74.9498 15.7117 97.791-34.3281-1.5849-68.2599-5.0173-95.5905-8.3621 23.2814-46.0788 38.7732-114.8671 42.074-189.2448q15.77775-1.05645 30.6751-2.9489a.26494.26494 0 0 0 .1762-.044c5.4573-.6598 10.8264-1.4522 16.1077-2.2887 18.5285 9.3308 45.815 23.8979 73.3653 41.4145C2289.27223 1561.48183 2252.30333 1579.43793 2244.55753 1616.583Z" style="fill:#f99b28"></path>
  <path d="M2206.75273,1516.76713c-3.3008,74.3777-18.7926,143.166-42.074,189.2448-109.1458,216.2232-389.5803,166.0512-389.5803,166.0512-78.2063-38.5967-53.0325-73.7174-9.2421-110.7744,6.0294-5.1489,12.4551-10.2983,18.9685-15.4918,92.2019,37.1451,182.6433,56.4658,202.6679,1.5849,21.125-57.9179-52.0203-134.4961-133.2634-198.179l-.044-.0441c-33.7121-26.4062-68.7443-50.612-99.1116-70.3286-.044-.044-.0881-.0881-.1321-.0881-308.8651-260.8936-339.1881-447.3219-320.2636-548.5459.6162-3.2567,1.2762-6.4694,1.9805-9.5501,7.2615-31.7314,19.1444-54.0887,27.2424-66.6319a99.38632,99.38632,0,0,1,8.7581-11.9707c-15.6237,211.9541,126.574,480.3298,387.6435,601.7103.3081.1322.6162.3081.9243.4403q16.04175,7.5258,32.6997,14.1712C2018.43223,1508.31693,2122.12073,1522.31253,2206.75273,1516.76713Z" style="fill:#ec1c24"></path>
  <path d="M2105.92723 1773.32043a87.82006 87.82006 0 0 1-8.2621-5.4805 17.67349 17.67349 0 0 0-12.5924-4.3259c-7.0345.334-13.3552-1.5759-18.4066-6.7353-8.2977-8.475-7.2229-22.1348 2.5472-31.132a37.85753 37.85753 0 0 1 8.1093-5.5428 65.19482 65.19482 0 0 0 15.5315-11.22c6.3709-6.226 13.3283-8.1737 20.5098-5.5392 7.2445 2.6577 11.4095 8.7286 12.1484 17.7261a39.71494 39.71494 0 0 0 4.9306 17.0809 27.16759 27.16759 0 0 1 3.4629 15.06c-.4379 9.8418-6.1739 17.7746-14.5695 20.2072a21.20182 21.20182 0 0 1-13.1773-.5228Q2106.04323 1773.10823 2105.92723 1773.32043ZM2123.25863 1662.50513c-1.6099 5.1207-3.6038 10.0495-7.1246 13.9453a27.46035 27.46035 0 0 1-6.1712 5.2899c-7.407 4.3445-14.6272.7172-16.5483-8.3243a29.13308 29.13308 0 0 1 4.704-23.3351 37.08115 37.08115 0 0 1 16.9909-13.8659 16.56008 16.56008 0 0 1 5.2988-1.1164c3.5445-.1529 5.7011 2.0228 6.3062 6.0035.6215 4.0891-.103 8.2461-1.0479 12.3712C2124.97253 1656.50293 2124.06883 1659.49583 2123.25863 1662.50513ZM2130.10553 1664.94823c2.3423-4.7084 4.5574-9.5008 7.0865-14.0859a21.5834 21.5834 0 0 1 4.3022-5.2102c2.5589-2.3674 5.2395-2.4867 7.7337-.7157 3.0231 2.1465 4.7735 5.5379 6.1238 9.268 2.3583 6.5144 3.5374 13.4458 1.866 20.9315-1.7299 7.7472-5.6392 14.0509-11.8715 18.1219-7.8241 5.1107-15.4995 1.4386-17.5415-8.198a29.99 29.99 0 0 1 .8338-14.7079c.5113-1.762 1.1934-3.4791 1.7976-5.2167Q2130.27083 1665.04163 2130.10553 1664.94823ZM2168.16463 1717.92033c-3.2173 9.2142-8.5062 15.1854-16.3255 17.5486-8.6194 2.6049-14.6251-4.1846-12.91-14.3223a26.68621 26.68621 0 0 1 4.4404-11.027 51.17377 51.17377 0 0 1 13.7824-13.8201 16.65145 16.65145 0 0 1 4.7214-2.1183c3.2481-.8498 5.6266.5641 6.905 3.8642 1.8056 4.661 1.4998 9.7669.5589 14.9613C2169.01253 1714.79893 2168.49153 1716.57033 2168.16463 1717.92033ZM2083.77143 1697.41613a67.12959 67.12959 0 0 1-4.0628 6.735c-4.5703 5.93-11.3397 6.6232-15.7907 1.8262-5.443-5.8661-6.7165-16.0443-3.1632-25.1975a38.1476 38.1476 0 0 1 7.9346-12.9923 21.0501 21.0501 0 0 1 3.494-2.8937c3.3655-2.2196 6.3593-1.7286 8.5946 1.3506a11.45156 11.45156 0 0 1 1.5693 2.8471 48.81681 48.81681 0 0 1 2.2364 24.1132c-.2075 1.3546-.6648 2.6924-1.0066 4.038Z" style="fill:#fff"></path>
  <path d="M1463.90093,854.01413c-8.098,12.5432-19.9809,34.9005-27.2424,66.6319a85.01838,85.01838,0,1,1-79.5269-144.6623,85.00283,85.00283,0,0,1,106.7693,78.0304Z" style="fill:#2875f9"></path>
  <path d="M1356.07543,940.01063c-178.9024,27.2425-486.0227,21.2922-737.2626-259.3533-131.019-146.3538-230.0425-80.4952-260.8498-154.2567-40.4456-96.8667,239.8568-210.1057,338.8802-73.6734,27.4187,37.805,59.7662,72.5293,92.1578,103.0285-39.3012-123.2292,9.0662-213.0546,9.0662-213.0546,103.4245-237.6562,169.4401,121.0287,301.4713,261.862,92.29,98.4513,200.7315,149.5914,257.5931,171.4206a85.03221,85.03221,0,0,0-1.0562,164.0269Z" style="fill:#ec1c24"></path>
  <path d="M700.49623,1035.16113c-40.7978,38.7292-76.3142,91.9379-103.2926,164.3788-70.6808-71.2528-109.6299-270.0919-12.5869-334.7432C649.00393,821.88663,617.84453,1000.12883,700.49623,1035.16113Z" style="fill:#f99b28"></path>
  <path d="M2367.78663,1379.14643c-44.0104,48.4115-252.2674,69.0965-277.2656-19.5844-20.5528-72.8374,69.9767-21.7411,129.9188-94.3583v-.0441c21.6531-26.1422,59.1501-14.5674,91.5417,9.8143,31.0275,23.2814,57.3897,58.2697,60.8664,83.1798C2374.03633,1366.60363,2372.58393,1373.86543,2367.78663,1379.14643Z" style="fill:#f02f84"></path>
  <g style="opacity:.6">
    <path d="M2752.59543 1047.59773c-210.6338-55.8933-294.9576-152.6722-407.9766-331.7506-92.3338-146.2027-245.27-190.4772-329.3738-203.8563-8.494-10.5185-17.6482-21.0811-27.2425-31.6435 13.9072-.264 114.339-.1762 219.1719 53.7806 1.8924.9684 3.7848 1.9806 5.6772 2.9927a424.50509 424.50509 0 0 1 130.0069 106.1093c30.7192 37.4527 54.749 72.397 75.918 105.0529 67.38 104.1285 105.6691 185.5037 238.9325 253.0599 16.7239 8.494 34.9002 16.7239 54.837 24.7779C2728.38973 1032.54593 2741.68093 1039.71963 2752.59543 1047.59773ZM1511.54573 1072.85963c-30.7632-78.3825-44.2744-158.4815-38.8613-231.759 5.5454-75.1258 30.8954-143.2098 77.8104-195.142 15.6677 26.5381 29.0911 47.3112 36.9248 59.1059C1538.78823 750.17523 1475.149 853.24753 1511.54573 1072.85963Z" style="fill:#fff"></path>
    <path d="M2015.245 511.99083c-10.5626-1.6724-20.0247-2.8607-28.1227-3.741-120.8527-115.6152-218.8637-178.5062-297.5544-208.9173-14.4796-7.2618-28.4749-12.1029-41.6339-13.6872-109.5858-29.267-175.2936 8.758-209.2695 41.6337 3.1686-32.4357 15.6677-59.766 41.5899-77.9423 73.5412-51.7122 210.1497-1.9805 335.4913 83.0036v.044c63.5511 43.1302 124.1975 95.3265 172.2568 147.963C1997.59683 490.90973 2006.751 501.47233 2015.245 511.99083ZM2195.77583 507.36983c-231.0987-396.7981-344.6018-349.3547-392.3089-283.5593 3.4767-42.6461 20.0687-84.9401 68.4802-99.9035C1999.48923 84.51763 2153.12973 410.28283 2195.77583 507.36983ZM1417.05553 994.389c-32.7 7.2618-86.3487 12.499-172.3009 6.2053-137.8847-10.0783-333.5549-32.4794-454.9357-26.6262 159.1416-72.9691 354.6361-13.8632 457.1803-13.8632 121.0286 0 165.215-16.152 180.3546-25.0859C1429.86243 952.755 1427.48593 972.64783 1417.05553 994.389ZM2427.93083 1673.07373c-2.8608 12.3669-13.2472 21.3009-28.6509 27.6384-20.5968-70.0205-108.7498-119.1362-165.0831-144.046-10.9585-4.8413-20.6849-8.758-28.4749-11.7507-.3081 4.357-.66 8.6258-1.1002 12.895-366.6067 8.6259-528.565-184.3597-596.209-315.951 63.8151 81.9036 148.9311 153.2884 252.8399 201.3918q16.04175 7.5258 32.6997 14.1715c148.5352 59.59 267.4511 67.9958 359.7852 53.1206 18.5282 9.3301 45.8147 23.8976 73.3652 41.4136C2381.63173 1586.59313 2437.21693 1632.80413 2427.93083 1673.07373ZM1463.92643 853.07163c-8.0977 12.5428-19.9806 34.9002-27.2424 66.6318a83.28938 83.28938 0 0 1-10.5624 8.2737c4.1293-61.2173 10.0966-85.6205-28.4125-108.5285-59.4388-35.3584-75.6282 3.5197-91.868-5.4583-235.1917-129.6107-298.5228-249.4951-380.8661-424.1724-38.8612-82.3877-77.1063-96.2948-107.7377-86.0403 92.8622-155.4008 158.6138 167.8555 282.327 299.843 92.2897 98.4512 200.7314 149.5913 257.5928 171.4203a85.00281 85.00281 0 0 1 106.7693 78.0307ZM700.52193 1034.21833a353.56769 353.56769 0 0 0-42.4261 48.4996c-59.5022-68.0402-72.3531-157.4253-72.8372-219.2599C648.80973 822.08813 618.13433 999.31813 700.52193 1034.21833ZM649.90993 1274.07513s-64.6512 37.542-139.6449 271.6616c.484-9.3302 18.5722-128.9358 18.6163-136.9458 1.2762.9684 2.4646 2.0687 3.6526 3.1689 0 0 0-54.1768 31.9517-94.7105v-.044C581.86973 1295.15633 608.62813 1277.15593 649.90993 1274.07513ZM939.71843 673.06893c-152.2759-44.9345-276.6165-189.5665-276.6165-189.5665-110.6863-100.6958-122.1618-64.2856-187.4293-82.506 77.2822-23.1933 171.8165-17.252 221.1964 50.7882 27.4184 37.8048 59.7662 72.5291 92.1578 103.0283C849.36493 611.58643 909.96733 653.61633 939.71843 673.06893ZM1606.39193 1394.518c-11.7444-4.9379 533.157 301.261 334.4927 379.0423C1940.88463 1773.56033 1670.94053 1421.65783 1606.39193 1394.518Z" style="fill:#fff"></path>
  </g>
  <g style="opacity:.3">
    <path d="M2427.90093,1679.92123c-8.8021,38.0691-89.253,43.9663-167.6356,40.3575-34.328-1.5844-68.2602-5.017-95.5907-8.3619-109.1458,216.2232-389.58,166.0512-389.58,166.0512-78.2066-38.5972-53.0328-73.7174-9.2424-110.7741,6.0294-5.1491,12.455-10.2985,18.9685-15.4917-3.5648-1.4084-7.0856-2.8606-10.6064-4.357q-7.7898,6.5355-15.9318,12.7631c-233.563,178.33-674.5036,157.4251-952.2093-2.2005-102.4123,42.1618-233.079,46.475-363.7462-84.192-.2637-.2202-.484-.4402-.7483-.7043,0,0-132.0313,77.3704-220.0521,0-26.0979-22.9292-18.1323-62.8908,8.5383-105.2728,38.3769,59.59,124.9456,132.4712,282.371-23.0615v.0879c.0792,3.8163,7.0999,93.4279,116.1912,122.3712,80.9384,21.474,174.4155,59.5678,376.2891-63.3597,0,0-5.3473,86.3211,143.3419,150.8933,163.9387,71.1948,309.3853,28.373,386.9836-9.6382,45.425-22.2513,75.0913-55.9988,28.6068-112.8427,0,0,445.7775,228.4389,314.8024-57.2766l.0881.0881c.0879.0878.3081.264.5722.484,1.7162,1.5844,6.9097,6.2054,14.7874,12.7191.0441,0,.0441.0438.0881.0438,50.4799,42.0302,208.2338,206.9631,291.727,33.6578,0,0,180.3914,92.4688,175.0475-39.9072C2402.11083,1612.58533,2435.25083,1648.10173,2427.90093,1679.92123Z" style="fill:#102770"></path>
  </g>
  <g style="opacity:.3">
    <path d="M2207.14863,535.07083c-104.8326-53.9569-205.2644-54.045-219.1718-53.7809-48.0593-52.6363-108.7058-104.8326-172.2128-147.919v-.044c-1.144-3.6967-52.4163-174.9414,56.1573-208.4773C2021.55683,78.63863,2207.14863,535.07083,2207.14863,535.07083Z" style="fill:#102770"></path>
  </g>
  <path d="M2424.19453,1379.81523a288.63253,288.63253,0,0,1-54.6973-5.144,17.60435,17.60435,0,0,1,6.6992-34.5655,256.30981,256.30981,0,0,0,57.0435,4.3531l.5615-.0098a17.60505,17.60505,0,0,1,.0879,35.21Q2429.04073,1379.81278,2424.19453,1379.81523Z" style="fill:#102770"></path>
  <path d="M2492.46843 1395.98223c-23.0591 0-45.7349-6.2695-67.3975-18.6426-85.996-49.2309-136.3525-184.1113-153.8793-239.2529-24.1114 18.8794-60.9546 57.0361-44.4605 104.9243 1.1987 1.8433 3.7354 5.6006 7.605 10.5737l3.7085 4.7681v6.04a17.61219 17.61219 0 0 1-32.0679 10.0757 161.49639 161.49639 0 0 1-10.3027-14.7143l-.8301-1.3965-.5615-1.521c-28.4595-77.2534 38.7549-139.9072 78.2739-162.2437l19.8779-11.2353 5.8106 22.0874c.4907 1.8677 50.2441 187.4805 144.3042 241.3306 16.2597 9.2871 33.0615 13.999 49.9194 13.999 74.6729 0 202.1387-81.2647 257.3364-164.065 16.5845-24.8413 34.2286-61.2988 24.1529-93.9526-7.6392-24.7632-30.5274-44.9976-68.0274-60.1367-20.0952-8.1177-39.0088-16.6651-56.2182-25.4053-120.979-61.3281-167.6856-135.5371-221.7701-221.4648-7.7002-12.2364-15.6103-24.8047-23.9721-37.7271-17.7295-27.3511-42.2583-63.8403-74.7486-103.4521a408.56951 408.56951 0 0 0-130.1171-104.607c-101.6846-52.3364-199.8975-52.0263-210.7935-51.8408l-.813.0122a17.329 17.329 0 0 1-18.6816-16.0132 17.83411 17.83411 0 0 1 16.1132-19.0991s1.0718-.105 3.0469-.105c18.8672-.3515 120.1416.6153 227.229 55.7349a443.54745 443.54745 0 0 1 141.2354 113.5864c33.6011 40.9668 58.8452 78.5108 77.0825 106.6455 8.4497 13.0616 16.4404 25.7544 24.2163 38.1104 53.4131 84.8633 95.603 151.8921 207.9028 208.8232 16.3257 8.291 34.3116 16.416 53.4717 24.1553 47.8003 19.2969 77.5733 47.0215 88.4888 82.4023 11.2036 36.316 1.3452 79.148-28.5083 123.8721C2717.50753 1308.63113 2578.20823 1395.98223 2492.46843 1395.98223ZM1472.67843 858.88263c-.437 0-.8741-.0171-1.3159-.0488a17.60414 17.60414 0 0 1-16.2598-18.8526c6.0229-81.5991 34.4824-152.7099 82.3022-205.6469a17.60538 17.60538 0 1 1 26.128 23.6035c-42.5245 47.0703-67.876 110.9155-73.3179 184.6362A17.60414 17.60414 0 0 1 1472.67843 858.88263Z" style="fill:#102770"></path>
  <path d="M2253.68913 1528.32593a17.60631 17.60631 0 0 1-2.7661-34.9902c128.3032-20.5713 205.0732-88.1982 239.4141-126.6772a17.605 17.605 0 1 1 26.2695 23.4448c-37.4561 41.9629-121.0523 115.6982-260.1074 137.998A17.74055 17.74055 0 0 1 2253.68913 1528.32593ZM1594.67063 733.62873a17.58674 17.58674 0 0 1-14.4727-7.5611c-2.644-3.8085-65.3052-94.4506-111.6626-199.0307-65.2148-147.1192-64.6875-245.3369 1.5698-291.9238 38.7036-27.2144 92.7002-31.6065 160.4883-13.0616 167.4463 45.8106 395.21 231.3135 459.8242 374.5044a17.60549 17.60549 0 0 1-32.0947 14.4825c-60.0391-133.0591-280.5908-312.2315-437.0215-355.0269-39.3139-10.7544-93.9429-18.1152-130.9472 7.9053-103.7867 72.9736 50.5395 343.8501 118.7597 442.063a17.60516 17.60516 0 0 1-14.4433 27.6489Z" style="fill:#102770"></path>
  <path d="M2207.16083,551.90993a17.6064,17.6064,0,0,1-16.3135-10.9741c-.4614-1.1328-46.77-114.3848-110.4663-220.3052-79.3091-131.8823-151.5137-195.7226-203.2642-179.7241-91.6503,28.3008-45.0073,184.9878-44.5263,186.5674a17.60351,17.60351,0,0,1-33.6621,10.3149c-2.3999-7.8173-57.3096-191.8896,67.7978-230.5249,70.8008-21.853,152.898,43.9209,244.0137,195.5323,65.0561,108.2495,112.251,223.7207,112.7222,224.8755a17.61486,17.61486,0,0,1-16.3013,24.2382Z" style="fill:#102770"></path>
  <path d="M1926.94383,567.00373l-110.4973,7.6174-91.3121,52.1302s-227.6217-209.7355-130.8749-278.1658S1926.94383,567.00373,1926.94383,567.00373Z" style="fill:#ed2e7a"></path>
  <path d="M1723.987,636.866l-4.419-4.0723c-6.665-6.1426-163.1689-151.4551-157.3071-242.2656,1.3159-20.4224,10.4883-36.7896,27.2558-48.6499,101.8042-72.019,333.938,207.9517,343.772,219.9048l10.1319,12.3193-124.5337,8.584Zm-94.5801-290.5615c-11.3989,0-21.6553,2.8003-30.4028,8.9868-12.6929,8.9795-19.3506,20.8496-20.3467,36.2915-4.856,75.1367,122.3242,200.7568,147.6928,225.0146l87.6539-50.0439,96.2768-6.6358C1847.46113,486.27763,1709.97333,346.30453,1629.40693,346.30453Z" style="fill:#102770"></path>
  <path d="M1725.09293 643.59213a17.63383 17.63383 0 0 1-11.9507-4.6192c-17.0434-15.708-166.3525-156.1816-160.3051-249.8144 1.4892-23.0591 12.2802-42.3242 31.2036-55.7105 47.6928-33.7256 123.2226-5.2173 224.4824 84.7608 71.2866 63.3447 129.5215 133.8745 131.9653 136.8457a17.60444 17.60444 0 0 1-19.3676 27.8149c-.896-.293-43.4107-13.9966-102.2852 7.7515-56.1231 20.7373-80.4443 46.9287-80.6836 47.1899a17.72547 17.72547 0 0 1-12.2803 5.7642C1725.61293 643.58723 1725.35173 643.59213 1725.09293 643.59213Zm-95.1416-288.8453c-9.7485 0-18.3691 2.3462-25.5786 7.4463-10.3735 7.3365-15.5835 16.6236-16.3989 29.2261-3.8819 59.9194 89.0332 163.5303 137.3901 210.6128 14.3628-11.6235 40.6836-29.4409 81.2695-44.4385 29.8682-11.0351 56.3355-14.4018 77.2144-14.5117C1805.59343 455.26933 1693.73063 354.74683 1629.95133 354.74683ZM2713.39863 1229.46613c-76.9629.0049-130.0903-38.7158-151.9824-112.3291-13.9551-46.9678-11.3575-82.583 7.7148-105.8618 17.9541-21.9165 48.2617-31.0913 90.1489-27.2876a17.60426 17.60426 0 0 1-3.1933 35.0634c-20.2808-1.8457-47.1338-.8276-59.7217 14.5362-11.062 13.5034-11.4771 38.9258-1.2012 73.5156 21.4405 72.0898 77.2315 99.707 165.857 82.1069a17.60356 17.60356 0 0 1 6.8652 34.5313A280.20692 280.20692 0 0 1 2713.39863 1229.46613ZM2164.66323 1722.85233a17.60772 17.60772 0 0 1-15.6958-25.5517c24.8658-49.1846 38.5205-109.9756 40.5835-180.669a17.60512 17.60512 0 0 1 35.1953 1.0254c-2.2168 75.9082-17.1411 141.6895-44.3579 195.5322A17.60423 17.60423 0 0 1 2164.66323 1722.85233ZM1472.65883 858.88263a17.627 17.627 0 0 1 .044-35.2539h.0024a17.627 17.627 0 0 1-.0464 35.2539ZM1784.81953 1762.63753a17.58311 17.58311 0 0 1-6.4551-1.2305c-3.706-1.4648-7.3633-2.9736-11.0229-4.5264-13.7769-5.6836-28.23-12.0507-44.0235-19.3847-18.789-8.7305-38.1714-18.2373-57.605-28.2666-62.7539-32.3242-110.6274-61.7627-111.1035-62.0557a17.60417 17.60417 0 0 1 18.4766-29.9707c.4639.2881 47.2656 29.0576 108.7622 60.7324 19.0137 9.8096 37.9517 19.1065 56.3037 27.627 15.3272 7.124 29.3213 13.2812 42.7832 18.8379 3.5425 1.5039 6.9263 2.9052 10.3491 4.2529a17.60656 17.60656 0 0 1-6.4648 33.9844ZM1754.92453 1495.58183a17.54133 17.54133 0 0 1-9.5777-2.8467c-46.6552-30.332-146.0742-82.08-147.0752-82.5976a17.60414 17.60414 0 0 1 16.2378-31.2403c4.1406 2.1534 101.9361 53.0518 150.0269 84.3164a17.60776 17.60776 0 0 1-9.6118 32.3682ZM2298.60853 1732.15413q-18.37275 0-39.1503-.9571a17.60652 17.60652 0 0 1 1.621-35.1757c135.1221 6.2255 148.3912-21.1768 149.6753-26.7334 5.5127-23.9161-28.4253-61.2061-93.1152-102.295a17.60277 17.60277 0 1 1 18.877-29.7168c82.644 52.4903 118.1494 98.2618 108.5424 139.9317C2436.45523 1714.41483 2389.60713 1732.14923 2298.60853 1732.15413ZM680.04413 1795.21073c-85.957 0-167.1045-36.0254-241.5991-107.2705-36.5235 18.0713-147.3389 63.0225-228.5376-8.3496-13.3448-11.7334-27.6074-33.4863-19.7608-70.5078 17.0044-80.249 136.6455-194.043 237.0655-225.4883 35.1977-11.0132 65.913-11.4355 90.5566-1.4746 9.3262-51.604 43.6011-118.9111 130.813-125.4517a17.603 17.603 0 0 1 2.6318 35.1075c-99.3774 7.456-101.0498 115.7788-101.0718 120.3881a17.61585 17.61585 0 0 1-29.6704 12.7735c-22.1728-20.8692-57.2314-15.7373-82.7368-7.7393-88.9746 27.8565-198.5351 130.2442-213.1445 199.1846-5.2222 24.6435 5.1538 33.7646 8.562 36.7627 77.2876 67.9346 198.335-1.2744 199.5483-1.9776a17.63008 17.63008 0 0 1 21.3526 2.7735c74.0503 74.3164 154.5923 109.9072 239.4897 105.7275 165.9253-8.1347 296.4429-165.4443 297.7417-167.0312a17.60379 17.60379 0 0 1 27.273 22.2656c-5.6885 6.9727-141.416 170.8936-323.086 179.9219C690.31753 1795.08383 685.16373 1795.21073 680.04413 1795.21073Z" style="fill:#102770"></path>
  <path d="M1316.75553 1896.82693c-6.0888 0-12.1728-.0537-18.313-.1513-179.7461-2.9834-362.4048-50.4297-501.1377-130.1758a17.60479 17.60479 0 0 1 17.544-30.5274c258.2373 148.4375 694.6631 185.2588 932.7539 3.4717 5.1147-3.9062 10.2661-8.0322 15.3027-12.2558a17.60328 17.60328 0 1 1 22.627 26.9726c-5.4468 4.5703-11.0157 9.0332-16.5576 13.2666C1659.341 1851.13363 1499.28243 1896.82693 1316.75553 1896.82693ZM564.48013 1335.03493a17.623 17.623 0 0 1-17.2925-21.0009c8.6915-44.2554 19.9708-85.105 33.5254-121.4161 26.2891-70.5957 62.5147-128.1298 107.6636-170.9887.2539-.2442.5151-.4761.7813-.7007 135.4296-127.8882 322.1923-104.458 458.6377-87.3438 38.8842 4.8804 72.4682 9.0918 99.1772 9.0918 140.5713 0 171.6138-22.4365 174.1821-24.519a17.6047 17.6047 0 0 1 28.1934 21.0034c-6.0254 9.0845-38.4277 38.7256-202.3755 38.7256-28.9111 0-63.5034-4.3408-103.562-9.3677-129.7046-16.2695-307.3462-38.5595-430.7471 78.6402-.2466.2343-.4956.4589-.7519.6738-40.9034 39.0723-73.9405 91.914-98.2105 157.0849-12.8882 34.5313-23.6426 73.523-31.9678 115.9034A17.60939 17.60939 0 0 1 564.48013 1335.03493Zm855.5469-415.3637a.25908.25908 0 0 0-.0195.0268A.25908.25908 0 0 1 1420.027 919.67123Zm.0171-.0293a.218.218 0 0 1-.0147.0244A.218.218 0 0 0 1420.04413 919.64193Zm.0146-.0196-.0073.0098Zm1.2745-1.6186Z" style="fill:#102770"></path>
  <path d="M1845.07583,1893.97543c-42.4267,0-71.2011-5.0098-73.0786-5.3467l-2.4536-.4395-2.2363-1.1035c-37.5122-18.5156-57.1436-38.9062-60.0147-62.3389-3.6816-30.0439,20.5078-55.083,47.1924-77.6611,6.0645-5.1855,12.3584-10.2344,19.3628-15.8203l8.0298-6.4014,9.5264,3.8379c104.6582,42.1631,147.0581,36.5381,163.0224,29.4239,8.2495-3.6719,13.501-9.2481,16.5283-17.544,14.3189-39.2578-30.9912-102.5732-127.5854-178.2861-27.8516-21.8555-59.3408-44.2823-93.6597-66.7188h-1.2085l-5.2026-4.3945c-143.1812-120.9912-241.2793-238.3862-291.5601-348.9185-37.0825-81.5136-47.9297-157.6562-32.2412-226.3037,7.732-33.789,20.3711-57.9443,29.6143-72.2607a110.72077,110.72077,0,0,1,10.6128-14.3628l34.1919-37.0435-3.7012,50.2759c-14.1333,192.0093,113.6865,462.251,378.4106,584.8877,10.1587,4.7608,20.8496,9.3945,31.8482,13.7988,128.0884,51.3916,245.9912,68.9014,350.437,52.085l5.6274-.9082,5.0904,2.5635c18.3911,9.2627,46.3134,24.1162,74.8925,42.2802a17.60537,17.60537,0,0,1-18.8867,29.7168c-24.8828-15.8203-49.3139-29.0478-66.831-38.0078-109.4019,16.3282-231.6284-2.1728-363.4326-55.0488-11.6138-4.6533-22.9273-9.5557-33.6182-14.5703-126.6089-58.6524-232.3828-153.313-305.813-273.7158-52.8369-86.6358-84.5239-179.9976-92.2241-269.5044q-.9924,3.72795-1.897,7.6635c-19.6948,86.1841-5.6543,270.1856,307.5806,536.5625h.8349l3.9502,3.9161c36.2476,23.5888,69.5166,47.2363,98.9112,70.3027,112.7343,88.3643,159.4799,161.7334,138.9355,218.0566-6.3403,17.378-18.2104,30.0391-35.2808,37.6416-36.5844,16.2842-95.8203,8.0762-180.9008-25.122-3.6866,2.9785-7.1802,5.8545-10.5542,8.7402-15.8911,13.4473-36.7359,32.8369-35.0562,46.5576,1.2207,9.9561,14.7949,21.9434,38.3032,33.877,26.6578,3.9551,271.6993,34.5849,368.4204-157.0313l5.5738-11.04,12.2803,1.499c33.9404,4.1553,65.6567,6.9336,94.2651,8.2568a17.60423,17.60423,0,0,1-1.626,35.1709c-26.062-1.206-54.5581-3.5742-84.8608-7.0507-48.2959,87.3095-131.9141,143.4082-242.6367,162.5586A512.744,512.744,0,0,1,1845.07583,1893.97543Z" style="fill:#102770"></path>
  <path d="M1379.048,960.01783a102.63964,102.63964,0,0,1-26.4282-201.8164,103.52934,103.52934,0,0,1,26.4282-3.4497,102.38141,102.38141,0,0,1,102.439,97.6709l.2636,5.6348-3.059,4.7388c-7.71,11.9409-18.2837,32.2216-24.8731,61.0131l-1.2183,5.3174-4.0112,3.6988A102.35681,102.35681,0,0,1,1379.048,960.01783Zm0-170.0561a68.28167,68.28167,0,0,0-17.4219,2.2778,67.427,67.427,0,0,0-.8227,130.0464,67.28633,67.28633,0,0,0,60.0732-12.0557,228.53389,228.53389,0,0,1,25-61.3281A67.21631,67.21631,0,0,0,1379.048,789.96173Z" style="fill:#102770"></path>
  <path d="M1357.12663,792.82793a17.57012,17.57012,0,0,1-6.3037-1.1743c-57.9443-22.2461-169.3066-74.6655-264.1284-175.8179-46.8213-49.9414-85.2661-125.5347-119.1821-192.2265-34.1919-67.2315-72.9273-143.3936-100.5494-143.3936-.1513,0-.2978.0024-.4467.0049-6.8213.2051-25.5762,7.3144-52.3072,68.7402l-.6421,1.3233c-.4223.7934-44.1577,85.3418-7.7929,199.3579a17.60477,17.60477,0,0,1-33.5449,10.6982c-39.6753-124.4067,4.9121-216.2695,9.9536-226.0181,26.2011-59.9926,52.6733-88.374,83.2763-89.2919,49.8243-1.5674,86.8018,70.9204,133.4351,162.6171,32.854,64.6021,70.0903,137.8199,113.4863,184.1089,90.0147,96.023,195.9351,145.8643,251.0596,167.0264a17.608,17.608,0,0,1-6.3135,34.0454Z" style="fill:#102770"></path>
  <path d="M1217.53433,967.53253a839.07729,839.07729,0,0,1-207.2339-25.5054c-154.8266-39.3603-290.9521-123.6035-404.5947-250.3857-86.6577-96.6748-145.1953-105.1856-187.9346-111.4014-30.7055-4.4629-59.7045-8.6816-76.0522-47.8198-17.5537-42.041,9.1675-89.2871,69.7363-123.3008,81.4282-45.7324,228.2276-65.8813,299.6363,32.5,21.7822,30.0366,48.7475,60.7056,80.1489,91.1621a17.60379,17.60379,0,0,1-24.5117,25.2735c-32.8589-31.8677-61.167-64.0845-84.1358-95.7593-58.0615-79.9951-185.8276-60.708-253.8989-22.4781-34.2603,19.2408-66.5649,50.105-54.4849,79.0357,8.2642,19.79,18.2642,22.1313,48.6255,26.5454,45.3613,6.5942,113.9112,16.5625,209.0869,122.7417,237.0044,264.4043,523.1787,283.9087,721.5015,253.6987a17.6044,17.6044,0,1,1,5.3027,34.8072A937.487,937.487,0,0,1,1217.53433,967.53253Z" style="fill:#102770"></path>
  <path d="M957.58073 687.10773c-16.8848-6.8482-32.9907-15.0781-48.8818-23.7573-15.8203-8.7842-31.3477-18.1202-46.4356-28.1397-15.0805-10.0171-30.0341-20.3393-44.0405-31.8652a345.8473 345.8473 0 0 1-39.7778-37.1387 15.45424 15.45424 0 0 1 20.8764-22.6196l.2369.1855c13.9965 10.752 26.9653 22.5269 40.2465 34.0625l39.3653 35.3418c26.394 23.562 53.396 46.7212 80.6591 70.1489l.0391.0318a2.22546 2.22546 0 0 1-2.2876 3.75ZM597.20473 1216.38013a17.55124 17.55124 0 0 1-12.4975-5.2075c-50.1734-50.5786-82.8345-155.8203-74.3555-239.5923 5.625-55.5786 27.9297-97.8344 64.5044-122.1997 14.2773-9.519 27.5855-11.9702 39.5703-7.2924 22.6123 8.8305 29.607 37.6049 38.4595 74.038 9.9927 41.1158 21.311 87.7002 54.1211 101.9068a17.60318 17.60318 0 0 1-6.4673 33.9673H696.963l-3.3374-1.3965c-49.3774-20.9302-63.5595-79.2798-74.9536-126.1646-4.3481-17.9004-10.8789-44.7705-16.8677-49.3847-.8398.1464-3.1738.7934-7.4243 3.6255-34.7754 23.1689-45.8398 65.2343-48.999 96.4453-7.4145 73.2568 21.4404 168.0224 64.3213 211.2524a17.605 17.605 0 0 1-12.4976 30.0024ZM2221.69943 1437.64243c-22.0386 0-43.6988-2.1436-63.2422-6.7481-46.189-10.8887-75.5445-34.165-84.895-67.3218-3.4815-12.351-7.0288-30.5249 2.3388-45.6982 10.3516-16.77 30.0391-20.5542 50.8814-24.5581 26.1816-5.0318 55.8545-10.7349 80.0854-40.0879h.0025c14.309-17.3389 35.5078-24.436 59.7143-19.9634 50.398 9.2993 106.1182 65.8325 120.4273 108.2617 8.5107 25.2368 1.3183 40.4126-6.2159 48.6939C2354.55093 1419.09263 2286.53823 1437.64243 2221.69943 1437.64243Zm12.3217-161.9971c-32.2998 39.1211-71.7724 46.7065-100.5932 52.2461-10.6934 2.0556-25.3394 4.8681-27.5684 8.4765-.2368.3858-2.2143 4.1578 1.5894 17.649 7.1606 25.393 36.084 37.185 59.0845 42.6098 68.2397 16.084 163.8769-3.3203 188.2104-30.0879 1.04-1.145 1.6064-5.7519-1.0962-13.7622-10.7226-31.7968-56.8701-78.1372-93.4497-84.8877-15.3613-2.8271-22.3071 3.0689-26.1792 7.7564Z" style="fill:#102770"></path>
  <path d="M2244.00653,1346.89533c8.2788-5.1831,16.2988-10.0171,23.5034-15.3735,7.2266-5.2344,13.6865-10.9229,18.4595-16.897a47.13946,47.13946,0,0,0,9.1675-17.8784c1.5698-5.835,1.8701-11.8067,1.8481-19.0162l-.0024-1.3989a15.52053,15.52053,0,0,1,29.9951-5.6445,52.73093,52.73093,0,0,1-.1026,36.7065,55.663,55.663,0,0,1-9.4189,16.2427,68.7303,68.7303,0,0,1-13.1201,11.8213,86.263,86.263,0,0,1-29.3335,12.8149,109.923,109.923,0,0,1-29.895,2.8833,2.29921,2.29921,0,0,1-2.1973-2.3999A2.36684,2.36684,0,0,1,2244.00653,1346.89533Z" style="fill:#102770"></path>
  <ellipse cx="2312.648" cy="907.911" rx="47.789" ry="92.863" style="fill:#102770"></ellipse>
  <path d="M442.28773,1684.69313a17.60123,17.60123,0,0,1-12.4877-30.0097c70.3002-70.7617,81.206-184.3897,81.4501-245.8252a17.60513,17.60513,0,0,1,35.21.1367c-.2661,66.8262-12.5317,190.835-91.6846,270.5029A17.551,17.551,0,0,1,442.28773,1684.69313Z" style="fill:#102770"></path>
  <ellipse cx="2319.385" cy="907.911" rx="12.811" ry="36.303" style="fill:#fff"></ellipse>
  <g style="opacity:.3">
    <path d="M2521.26863,1389.63283c-27.4184,30.7194-114.647,110.8182-257.6368,133.7477-92.3341,14.8755-211.25,6.4694-359.7852-53.1206q-16.63605-6.66765-32.7-14.1712c-261.6414-121.2049-404.1918-389.9325-388.5678-602.1506,5.0613-68.3483,36.705-143.2538,77.6785-195.3182,23.9419,40.4455,42.6023,67.5558,44.186,69.8885.0441.0441.0882.1319.1322.176,0,0-140.3047,378.3136,245.5783,645.4128,385.8833,267.0993,635.7306,15.6677,635.7306,15.6677a107.09008,107.09008,0,0,0,16.5039,1.2762A135.98118,135.98118,0,0,0,2521.26863,1389.63283Z" style="fill:#102770"></path>
    <path d="M1565.36263 652.37053c-1.717 2.0243-3.4329 4.0929-5.1053 6.2494-66.0597-111.6545-172.2569-324.6209-70.1089-396.446a110.93407 110.93407 0 0 1 38.2013-16.8998C1496.83813 312.30193 1469.85973 445.96153 1565.36263 652.37053ZM2485.84033 1389.76493c-3.2129 1.8484-311.0656 167.9437-380.646-6.4256 39.6531 74.7737 230.5703 53.8247 272.5124 7.7018 4.797-5.2813 6.2494-12.5428 5.061-20.993a273.5 273.5 0 0 0 60.9546 4.6651A120.85071 120.85071 0 0 0 2485.84033 1389.76493Z" style="fill:#102770"></path>
  </g>
</svg>
